<svg width="340" height="290" viewBox="0 0 340 290" fill="none" xmlns="http://www.w3.org/2000/svg">
<g clip-path="url(#clip0_31_590)">
<g clip-path="url(#clip1_31_590)">
<g clip-path="url(#clip2_31_590)">
<path d="M33.9182 27.1416C33.9182 16.1388 42.8382 7.21985 53.84 7.21985H285.512C296.514 7.21985 305.434 16.1388 305.434 27.1416V68.2591C305.434 79.2609 296.514 88.1809 285.512 88.1809H53.841C42.8382 88.1809 33.9192 79.2609 33.9192 68.2591L33.9182 27.1416Z" fill="white"/>
<path fill-rule="evenodd" clip-rule="evenodd" d="M285.512 8.71398H53.841C43.6639 8.71398 35.4133 16.9646 35.4133 27.1416V68.2591C35.4133 78.4362 43.6639 86.6868 53.841 86.6868H285.512C295.689 86.6868 303.94 78.4362 303.94 68.2591V27.1416C303.94 16.9646 295.689 8.71398 285.512 8.71398ZM53.841 7.21985C42.8382 7.21985 33.9192 16.1388 33.9192 27.1416V68.2591C33.9192 79.2609 42.8382 88.1809 53.841 88.1809H285.512C296.514 88.1809 305.434 79.2609 305.434 68.2591V27.1416C305.434 16.1388 296.514 7.21985 285.512 7.21985H53.841Z" fill="#1B1B1B" fill-opacity="0.07"/>
<path d="M177.576 36.8395H124.26C122.352 36.8395 120.805 38.3865 120.805 40.2949C120.805 42.2033 122.352 43.7503 124.26 43.7503H177.576C179.484 43.7503 181.031 42.2033 181.031 40.2949C181.031 38.3865 179.484 36.8395 177.576 36.8395Z" fill="#1B1B1B" fill-opacity="0.07"/>
<path d="M152.893 52.6375H124.26C122.352 52.6375 120.805 54.1845 120.805 56.0929C120.805 58.0013 122.352 59.5483 124.26 59.5483H152.893C154.801 59.5483 156.348 58.0013 156.348 56.0929C156.348 54.1845 154.801 52.6375 152.893 52.6375Z" fill="#1B1B1B" fill-opacity="0.07"/>
<path d="M94.0521 17.093H54.7514C48.7 17.093 43.7944 21.9986 43.7944 28.05V67.3506C43.7944 73.402 48.7 78.3076 54.7514 78.3076H94.0521C100.103 78.3076 105.009 73.402 105.009 67.3506V28.05C105.009 21.9986 100.103 17.093 94.0521 17.093Z" fill="url(#paint0_linear_31_590)" fill-opacity="0.04"/>
<path fill-rule="evenodd" clip-rule="evenodd" d="M74.4022 37.9879C74.8933 37.9879 75.2907 38.3864 75.2907 38.8764V56.5251C75.2907 56.7608 75.1971 56.9868 75.0305 57.1534C74.8638 57.32 74.6378 57.4136 74.4022 57.4136C74.1665 57.4136 73.9405 57.32 73.7739 57.1534C73.6073 56.9868 73.5137 56.7608 73.5137 56.5251V38.8754C73.5137 38.3844 73.9121 37.9879 74.4022 37.9879Z" fill="#1B1B1B"/>
<path fill-rule="evenodd" clip-rule="evenodd" d="M70.1132 56.5242C70.1132 56.0332 70.5116 55.6357 71.0017 55.6357H77.79C77.9067 55.6357 78.0222 55.6587 78.13 55.7034C78.2378 55.748 78.3358 55.8135 78.4183 55.896C78.5008 55.9785 78.5663 56.0764 78.6109 56.1842C78.6556 56.292 78.6785 56.4076 78.6785 56.5242C78.6785 56.6409 78.6556 56.7565 78.6109 56.8643C78.5663 56.9721 78.5008 57.07 78.4183 57.1525C78.3358 57.235 78.2378 57.3005 78.13 57.3451C78.0222 57.3898 77.9067 57.4128 77.79 57.4128H71.0017C70.766 57.4128 70.54 57.3191 70.3734 57.1525C70.2068 56.9859 70.1132 56.7599 70.1132 56.5242ZM67.4945 38.4791C67.5683 38.3315 67.6817 38.2074 67.8221 38.1207C67.9625 38.0339 68.1243 37.988 68.2893 37.988H80.5074C80.6724 37.9878 80.8343 38.0336 80.9747 38.1204C81.1152 38.2071 81.2286 38.3314 81.3022 38.4791L82.6599 41.1944C82.7653 41.4053 82.7827 41.6493 82.7081 41.8729C82.6336 42.0965 82.4733 42.2814 82.2625 42.3868C82.0517 42.4922 81.8076 42.5095 81.584 42.435C81.3604 42.3604 81.1756 42.2001 81.0701 41.9893L79.9585 39.7651H68.8392L67.7266 41.9893C67.6211 42.2001 67.4363 42.3604 67.2127 42.435C66.9891 42.5095 66.745 42.4922 66.5342 42.3868C66.3234 42.2814 66.1631 42.0965 66.0886 41.8729C66.014 41.6493 66.0314 41.4053 66.1368 41.1944L67.4945 38.4791Z" fill="#1B1B1B"/>
<path d="M264.948 33.8771H214.595C206.961 33.8771 200.772 40.0657 200.772 47.6998C200.772 55.3339 206.961 61.5225 214.595 61.5225H264.948C272.582 61.5225 278.771 55.3339 278.771 47.6998C278.771 40.0657 272.582 33.8771 264.948 33.8771Z" fill="#1B1B1B"/>
<path d="M255.551 51.6513L254.638 46.2963H255.757L256.43 50.9012H256.604L257.538 46.2963H259.352L260.275 50.9012H260.449L261.122 46.2963H262.241L261.328 51.6513H259.45L258.526 47.0573H258.353L257.429 51.6513H255.551ZM251.135 51.8017C250.592 51.8017 250.118 51.6891 249.713 51.465C249.311 51.2374 248.981 50.903 248.758 50.4988C248.532 50.0785 248.421 49.5924 248.421 49.0425V48.913C248.421 48.3552 248.532 47.8701 248.758 47.4568C248.982 47.0374 249.293 46.7147 249.691 46.4905C250.096 46.2595 250.563 46.1429 251.092 46.1429C251.606 46.1429 252.056 46.2595 252.439 46.4915C252.83 46.7147 253.134 47.0294 253.352 47.4358C253.569 47.8412 253.677 48.3154 253.677 48.8582V49.2816H249.561C249.575 49.7527 249.731 50.1283 250.028 50.4112C250.332 50.6861 250.709 50.8245 251.157 50.8245C251.577 50.8245 251.892 50.7299 252.102 50.5416C252.32 50.3534 252.486 50.1362 252.601 49.8902L253.525 50.3683C253.404 50.5995 253.254 50.8146 253.08 51.0088C252.891 51.2329 252.641 51.4212 252.331 51.5736C252.019 51.725 251.621 51.8017 251.135 51.8017ZM249.571 48.424H252.537C252.508 48.0186 252.363 47.7038 252.102 47.4787C251.841 47.2476 251.502 47.131 251.081 47.131C250.661 47.131 250.317 47.2476 250.049 47.4797C249.788 47.7038 249.63 48.0176 249.571 48.424ZM245.903 51.6503V46.2963H247.022V51.6503H245.903ZM246.468 45.5682C246.263 45.573 246.065 45.4992 245.914 45.362C245.842 45.2893 245.785 45.2027 245.748 45.1075C245.711 45.0122 245.693 44.9104 245.697 44.8082C245.697 44.584 245.769 44.4028 245.914 44.2653C245.987 44.1944 246.074 44.1386 246.169 44.1014C246.264 44.0641 246.365 44.046 246.468 44.0481C246.693 44.0481 246.877 44.1199 247.022 44.2653C247.167 44.4028 247.24 44.584 247.24 44.8082C247.24 45.0323 247.167 45.2166 247.022 45.362C246.872 45.5015 246.672 45.5757 246.468 45.5682ZM241.235 51.6513L239.432 46.2963H240.617L242.039 50.8255H242.212L243.636 46.2963H244.819L243.016 51.6513H241.235ZM236.303 51.8017C235.761 51.8017 235.286 51.6891 234.881 51.465C234.479 51.2374 234.148 50.903 233.925 50.4988C233.701 50.0785 233.588 49.5924 233.588 49.0425V48.913C233.588 48.3552 233.701 47.8701 233.925 47.4568C234.149 47.0374 234.461 46.7147 234.859 46.4905C235.265 46.2595 235.732 46.1429 236.26 46.1429C236.774 46.1429 237.223 46.2595 237.606 46.4915C237.998 46.7147 238.302 47.0294 238.519 47.4358C238.736 47.8412 238.844 48.3154 238.844 48.8582V49.2816H234.729C234.743 49.7527 234.899 50.1283 235.196 50.4112C235.5 50.6861 235.876 50.8245 236.325 50.8245C236.745 50.8245 237.059 50.7299 237.27 50.5416C237.48 50.3622 237.651 50.1402 237.77 49.8902L238.693 50.3683C238.572 50.5995 238.422 50.8146 238.248 51.0088C238.06 51.2329 237.81 51.4212 237.498 51.5736C237.187 51.725 236.789 51.8017 236.303 51.8017ZM234.74 48.424H237.704C237.675 48.0186 237.531 47.7038 237.27 47.4787C237.01 47.2476 236.669 47.131 236.249 47.131C235.829 47.131 235.485 47.2476 235.218 47.4797C234.957 47.7038 234.797 48.0176 234.74 48.424ZM229.837 51.6513V46.2973H230.935V46.9268H231.108C231.181 46.719 231.327 46.5453 231.52 46.4388C231.716 46.3292 231.956 46.2754 232.237 46.2754H232.878V47.2854H232.194C231.832 47.2854 231.535 47.387 231.303 47.5892C231.072 47.7855 230.955 48.0893 230.955 48.5017V51.6513H229.837ZM220.39 51.6503V46.2963H221.487V47.1002H221.661C221.763 46.883 221.943 46.6798 222.204 46.4925C222.465 46.3033 222.851 46.2097 223.366 46.2097C223.772 46.2097 224.129 46.2993 224.441 46.4806C224.76 46.6619 225.01 46.9189 225.19 47.2516C225.371 47.5773 225.462 47.9727 225.462 48.4359V51.6503H224.343V48.5226C224.343 48.0594 224.228 47.7187 223.996 47.5016C223.764 47.2775 223.446 47.1649 223.04 47.1649C222.576 47.1649 222.204 47.3173 221.921 47.6211C221.646 47.9249 221.509 48.3672 221.509 48.9459V51.6503H220.39ZM217.596 51.6503V44.0481H218.769V51.6503H217.596ZM1.33618 123.899C1.33618 112.896 10.2552 103.977 21.2579 103.977H251.941C262.944 103.977 271.863 112.896 271.863 123.899V165.015C271.863 176.018 262.944 184.937 251.941 184.937H21.2579C10.2552 184.937 1.33618 176.018 1.33618 165.015V123.899Z" fill="white"/>
<path fill-rule="evenodd" clip-rule="evenodd" d="M251.941 105.471H21.2579C11.0809 105.471 2.83031 113.721 2.83031 123.899V165.015C2.83031 175.193 11.0809 183.443 21.2579 183.443H251.941C262.119 183.443 270.369 175.193 270.369 165.015V123.899C270.369 113.721 262.119 105.471 251.941 105.471ZM21.2579 103.977C10.2552 103.977 1.33618 112.896 1.33618 123.899V165.015C1.33618 176.018 10.2552 184.937 21.2579 184.937H251.941C262.944 184.937 271.863 176.018 271.863 165.015V123.899C271.863 112.896 262.944 103.977 251.941 103.977H21.2579Z" fill="#1B1B1B" fill-opacity="0.07"/>
<path d="M186.461 133.597H91.6774C89.769 133.597 88.2219 135.144 88.2219 137.052C88.2219 138.96 89.769 140.507 91.6774 140.507H186.461C188.37 140.507 189.917 138.96 189.917 137.052C189.917 135.144 188.37 133.597 186.461 133.597Z" fill="#1B1B1B" fill-opacity="0.07"/>
<path d="M144.006 149.393H91.6774C89.769 149.393 88.2219 150.94 88.2219 152.849C88.2219 154.757 89.769 156.304 91.6774 156.304H144.006C145.914 156.304 147.461 154.757 147.461 152.849C147.461 150.94 145.914 149.393 144.006 149.393Z" fill="#1B1B1B" fill-opacity="0.07"/>
<path d="M61.4691 113.85H22.1684C16.117 113.85 11.2114 118.756 11.2114 124.807V164.108C11.2114 170.159 16.117 175.065 22.1684 175.065H61.4691C67.5204 175.065 72.426 170.159 72.426 164.108V124.807C72.426 118.756 67.5204 113.85 61.4691 113.85Z" fill="url(#paint1_linear_31_590)" fill-opacity="0.04"/>
<path d="M231.388 158.281C239.022 158.281 245.21 152.092 245.21 144.458C245.21 136.824 239.022 130.635 231.388 130.635C223.754 130.635 217.565 136.824 217.565 144.458C217.565 152.092 223.754 158.281 231.388 158.281Z" fill="#1B1B1B"/>
<mask id="mask0_31_590" style="mask-type:luminance" maskUnits="userSpaceOnUse" x="226" y="139" width="11" height="11">
<path d="M226.452 139.52H236.325V149.393H226.452V139.52Z" fill="white"/>
</mask>
<g mask="url(#mask0_31_590)">
<path fill-rule="evenodd" clip-rule="evenodd" d="M235.551 141.793C235.642 141.886 235.713 141.996 235.761 142.116C235.809 142.236 235.833 142.365 235.832 142.495C235.83 142.624 235.803 142.752 235.752 142.871C235.7 142.991 235.626 143.098 235.533 143.189L231.05 147.565C230.864 147.746 230.614 147.847 230.354 147.845C230.095 147.844 229.846 147.74 229.662 147.556L227.606 145.499C227.42 145.314 227.316 145.063 227.316 144.801C227.316 144.539 227.42 144.288 227.605 144.103C227.79 143.918 228.041 143.813 228.303 143.813C228.565 143.813 228.816 143.917 229.001 144.102L230.369 145.47L234.155 141.775C234.342 141.593 234.595 141.492 234.857 141.495C235.119 141.499 235.368 141.606 235.551 141.793Z" fill="white"/>
</g>
<mask id="mask1_31_590" style="mask-type:luminance" maskUnits="userSpaceOnUse" x="30" y="133" width="23" height="23">
<path d="M30.9539 133.597H52.6746V155.317H30.9539V133.597Z" fill="white"/>
</mask>
<g mask="url(#mask1_31_590)">
<path fill-rule="evenodd" clip-rule="evenodd" d="M35.3954 134.174C35.4778 134.092 35.5757 134.026 35.6835 133.982C35.7912 133.937 35.9067 133.914 36.0234 133.914C36.1401 133.914 36.2556 133.937 36.3633 133.982C36.4711 134.026 36.569 134.092 36.6514 134.174L39.8688 137.392C40.0207 137.561 40.102 137.782 40.096 138.009C40.09 138.237 39.997 138.453 39.8363 138.614C39.6756 138.775 39.4593 138.869 39.2319 138.875C39.0045 138.881 38.7833 138.8 38.6137 138.649L36.0239 136.059L33.4181 138.664L36.008 141.253C36.162 141.423 36.2449 141.644 36.2396 141.873C36.2344 142.102 36.1412 142.319 35.9796 142.481C35.818 142.643 35.6002 142.736 35.3716 142.742C35.143 142.747 34.9211 142.664 34.7519 142.511L31.5335 139.292C31.367 139.125 31.2734 138.899 31.2734 138.664C31.2734 138.428 31.367 138.202 31.5335 138.035L35.3954 134.174ZM47.6203 146.401C47.7871 146.235 48.0132 146.141 48.2489 146.141C48.4846 146.141 48.7106 146.235 48.8774 146.401L50.8078 148.332C50.9217 148.446 51.0026 148.589 51.0419 148.745L52.3289 153.894C52.3662 154.043 52.3642 154.199 52.3233 154.347C52.2824 154.495 52.2038 154.629 52.0952 154.738C51.9867 154.847 51.8519 154.925 51.704 154.966C51.556 155.007 51.4 155.009 51.2511 154.972L46.1023 153.684C45.9463 153.645 45.8037 153.564 45.6899 153.451L43.7585 151.519C43.676 151.437 43.6106 151.339 43.566 151.231C43.5214 151.123 43.4985 151.007 43.4985 150.891C43.4986 150.774 43.5216 150.659 43.5663 150.551C43.611 150.443 43.6765 150.345 43.759 150.263C43.8416 150.18 43.9395 150.115 44.0473 150.07C44.1552 150.026 44.2707 150.003 44.3874 150.003C44.5041 150.003 44.6196 150.026 44.7274 150.07C44.8352 150.115 44.9331 150.181 45.0156 150.263L46.7727 152.019L50.245 152.888L49.3774 149.414L47.6203 147.658C47.4538 147.492 47.3603 147.265 47.3603 147.03C47.3603 146.794 47.4538 146.568 47.6203 146.401ZM31.5355 149.589C31.369 149.422 31.2754 149.196 31.2754 148.96C31.2754 148.725 31.369 148.498 31.5355 148.332L45.6939 134.173C45.8607 134.007 46.0868 133.913 46.3224 133.913C46.5581 133.913 46.7842 134.007 46.951 134.173L52.0998 139.322C52.2663 139.489 52.3598 139.715 52.3598 139.951C52.3598 140.186 52.2663 140.412 52.0998 140.579L37.9414 154.738C37.7746 154.904 37.5485 154.998 37.3128 154.998C37.0771 154.998 36.8511 154.904 36.6843 154.738L31.5355 149.589ZM33.4211 148.96L37.3128 152.852L50.2142 139.951L46.3224 136.059L33.4211 148.96Z" fill="#1B1B1B"/>
<path fill-rule="evenodd" clip-rule="evenodd" d="M34.755 145.113C34.9217 144.947 35.1478 144.853 35.3835 144.853C35.6192 144.853 35.8452 144.947 36.012 145.113L37.9424 147.044C38.0964 147.213 38.1794 147.435 38.1741 147.663C38.1689 147.892 38.0757 148.11 37.9141 148.272C37.7525 148.433 37.5347 148.527 37.3061 148.532C37.0775 148.538 36.8556 148.455 36.6864 148.301L34.755 146.37C34.5884 146.204 34.4949 145.978 34.4949 145.742C34.4949 145.506 34.5884 145.28 34.755 145.113ZM37.3308 142.541C37.4976 142.375 37.7237 142.281 37.9594 142.281C38.1951 142.281 38.4211 142.375 38.5879 142.541L40.5183 144.472C40.6723 144.641 40.7553 144.863 40.75 145.091C40.7447 145.32 40.6516 145.538 40.49 145.7C40.3283 145.861 40.1106 145.955 39.882 145.96C39.6534 145.966 39.4314 145.883 39.2623 145.729L37.3308 143.799C37.1643 143.632 37.0708 143.406 37.0708 143.17C37.0708 142.934 37.1643 142.708 37.3308 142.541ZM39.8988 139.968C40.0655 139.801 40.2916 139.707 40.5273 139.707C40.763 139.707 40.989 139.801 41.1558 139.968L43.0862 141.898C43.2402 142.067 43.3232 142.289 43.3179 142.518C43.3127 142.746 43.2195 142.964 43.0579 143.126C42.8963 143.287 42.6785 143.381 42.4499 143.386C42.2213 143.392 41.9994 143.309 41.8302 143.155L39.8988 141.225C39.7322 141.058 39.6387 140.832 39.6387 140.596C39.6387 140.36 39.7322 140.134 39.8988 139.968ZM42.4746 137.392C42.6414 137.225 42.8675 137.132 43.1032 137.132C43.3389 137.132 43.5649 137.225 43.7317 137.392L45.6621 139.323C45.7446 139.406 45.81 139.503 45.8547 139.611C45.8993 139.719 45.9223 139.834 45.9223 139.951C45.9223 140.068 45.8993 140.183 45.8547 140.291C45.81 140.399 45.7446 140.497 45.6621 140.579C45.5797 140.662 45.4817 140.727 45.374 140.772C45.2662 140.816 45.1507 140.839 45.0341 140.839C44.9175 140.839 44.802 140.816 44.6942 140.772C44.5864 140.727 44.4885 140.662 44.4061 140.579L42.4746 138.649C42.3081 138.482 42.2146 138.256 42.2146 138.02C42.2146 137.785 42.3081 137.558 42.4746 137.392Z" fill="#1B1B1B"/>
</g>
<path d="M66.4944 220.657C66.4944 209.655 75.4134 200.735 86.4161 200.735H318.087C329.089 200.735 338.009 209.655 338.009 220.657V261.774C338.009 272.777 329.089 281.696 318.087 281.696H86.4161C75.4134 281.696 66.4944 272.777 66.4944 261.774V220.657Z" fill="white"/>
<path fill-rule="evenodd" clip-rule="evenodd" d="M318.087 202.229H86.4171C76.2391 202.229 67.9895 210.48 67.9895 220.657V261.774C67.9895 271.951 76.2391 280.202 86.4161 280.202H318.087C328.264 280.202 336.515 271.951 336.515 261.774V220.657C336.515 210.48 328.264 202.229 318.087 202.229ZM86.4171 200.735C75.4133 200.735 66.4954 209.655 66.4954 220.657V261.774C66.4954 272.777 75.4133 281.696 86.4161 281.696H318.087C329.089 281.696 338.009 272.777 338.009 261.774V220.657C338.009 209.655 329.089 200.735 318.087 200.735H86.4171Z" fill="#1B1B1B" fill-opacity="0.07"/>
<path d="M297.526 255.038C305.16 255.038 311.349 248.849 311.349 241.215C311.349 233.581 305.16 227.392 297.526 227.392C289.892 227.392 283.703 233.581 283.703 241.215C283.703 248.849 289.892 255.038 297.526 255.038Z" fill="#1B1B1B"/>
<path fill-rule="evenodd" clip-rule="evenodd" d="M301.69 238.549C301.872 238.737 301.973 238.989 301.97 239.251C301.967 239.513 301.86 239.763 301.673 239.946L297.188 244.322C297.003 244.503 296.753 244.604 296.493 244.602C296.233 244.601 295.984 244.497 295.801 244.313L293.744 242.256C293.569 242.068 293.475 241.821 293.479 241.565C293.484 241.309 293.587 241.065 293.768 240.884C293.949 240.703 294.194 240.599 294.449 240.595C294.705 240.59 294.953 240.685 295.14 240.859L296.507 242.227L300.293 238.532C300.481 238.35 300.733 238.249 300.995 238.252C301.257 238.255 301.506 238.362 301.69 238.549Z" fill="white"/>
<path d="M126.627 210.609H87.3266C81.2752 210.609 76.3696 215.515 76.3696 221.566V260.867C76.3696 266.918 81.2752 271.824 87.3266 271.824H126.627C132.679 271.824 137.584 266.918 137.584 260.867V221.566C137.584 215.515 132.679 210.609 126.627 210.609Z" fill="url(#paint2_linear_31_590)" fill-opacity="0.04"/>
<path fill-rule="evenodd" clip-rule="evenodd" d="M103.054 235.057C103.054 234.566 103.452 234.169 103.942 234.169H110.002C110.238 234.169 110.464 234.262 110.631 234.429C110.797 234.595 110.891 234.821 110.891 235.057C110.891 235.293 110.797 235.519 110.631 235.685C110.464 235.852 110.238 235.946 110.002 235.946H103.942C103.706 235.946 103.48 235.852 103.314 235.685C103.147 235.519 103.054 235.293 103.054 235.057ZM113.133 237.295C113.624 237.295 114.022 237.693 114.022 238.184V244.385C114.022 244.621 113.928 244.847 113.761 245.014C113.595 245.18 113.369 245.274 113.133 245.274C112.897 245.274 112.671 245.18 112.505 245.014C112.338 244.847 112.245 244.621 112.245 244.385V238.184C112.245 237.693 112.642 237.295 113.133 237.295ZM103.054 247.374C103.054 246.883 103.452 246.485 103.942 246.485H110.002C110.119 246.485 110.235 246.508 110.342 246.553C110.45 246.598 110.548 246.663 110.631 246.745C110.713 246.828 110.779 246.926 110.823 247.034C110.868 247.142 110.891 247.257 110.891 247.374C110.891 247.49 110.868 247.606 110.823 247.714C110.779 247.822 110.713 247.919 110.631 248.002C110.548 248.085 110.45 248.15 110.342 248.195C110.235 248.239 110.119 248.262 110.002 248.262H103.942C103.706 248.262 103.48 248.169 103.314 248.002C103.147 247.835 103.054 247.609 103.054 247.374ZM100.821 237.295C101.312 237.295 101.711 237.693 101.711 238.184V244.385C101.711 244.621 101.617 244.847 101.45 245.014C101.284 245.181 101.058 245.274 100.822 245.274C100.586 245.274 100.36 245.181 100.193 245.014C100.027 244.847 99.9329 244.621 99.9329 244.385V238.184C99.9329 237.693 100.331 237.295 100.821 237.295Z" fill="#1B1B1B"/>
<path fill-rule="evenodd" clip-rule="evenodd" d="M97.2017 233.317C97.2017 232.281 98.0414 231.441 99.0773 231.441H102.435C103.471 231.441 104.311 232.281 104.311 233.317V236.674C104.311 237.71 103.471 238.549 102.435 238.549H99.0783C98.8319 238.55 98.5879 238.501 98.3602 238.407C98.1325 238.313 97.9256 238.175 97.7514 238C97.5771 237.826 97.4389 237.619 97.3445 237.392C97.2502 237.164 97.2017 236.92 97.2017 236.674V233.317ZM99.0773 233.218C99.0512 233.219 99.0263 233.229 99.0079 233.247C98.9894 233.266 98.9789 233.291 98.9787 233.317V236.674C98.9789 236.7 98.9896 236.725 99.0082 236.744C99.0269 236.762 99.052 236.772 99.0783 236.772H102.435C102.461 236.772 102.486 236.762 102.505 236.743C102.523 236.725 102.533 236.7 102.534 236.674V233.317C102.533 233.291 102.523 233.266 102.505 233.247C102.486 233.229 102.461 233.219 102.435 233.218H99.0773ZM109.645 233.317C109.645 232.281 110.485 231.441 111.521 231.441H114.878C115.914 231.441 116.754 232.281 116.754 233.317V236.674C116.754 237.71 115.914 238.549 114.878 238.549H111.521C111.024 238.549 110.547 238.352 110.195 238C109.843 237.648 109.645 237.171 109.645 236.674V233.317ZM111.521 233.218C111.495 233.218 111.47 233.229 111.452 233.247C111.433 233.266 111.423 233.291 111.423 233.317V236.674C111.423 236.729 111.467 236.772 111.521 236.772H114.878C114.904 236.772 114.929 236.762 114.948 236.743C114.966 236.725 114.977 236.7 114.977 236.674V233.317C114.977 233.291 114.966 233.266 114.948 233.247C114.929 233.229 114.904 233.219 114.878 233.218H111.521ZM97.2017 245.756C97.2017 244.72 98.0414 243.88 99.0773 243.88H102.435C103.471 243.88 104.311 244.72 104.311 245.756V249.113C104.311 250.149 103.471 250.99 102.435 250.99H99.0783C98.5806 250.99 98.1032 250.792 97.7513 250.44C97.3994 250.088 97.2017 249.611 97.2017 249.113V245.756ZM99.0773 245.657C99.0512 245.658 99.0263 245.668 99.0079 245.687C98.9894 245.705 98.9789 245.73 98.9787 245.756V249.113C98.9789 249.139 98.9896 249.164 99.0082 249.183C99.0269 249.201 99.052 249.211 99.0783 249.211H102.435C102.461 249.211 102.486 249.201 102.505 249.182C102.523 249.164 102.533 249.139 102.534 249.113V245.756C102.533 245.73 102.523 245.705 102.505 245.687C102.486 245.668 102.461 245.658 102.435 245.657H99.0773ZM109.645 245.756C109.645 244.72 110.485 243.88 111.521 243.88H114.878C115.914 243.88 116.754 244.72 116.754 245.756V249.113C116.754 250.149 115.914 250.99 114.878 250.99H111.521C111.024 250.989 110.547 250.791 110.195 250.44C109.843 250.088 109.645 249.611 109.645 249.113V245.756ZM111.521 245.657C111.508 245.657 111.496 245.66 111.484 245.665C111.472 245.67 111.461 245.677 111.452 245.686C111.443 245.695 111.435 245.706 111.43 245.718C111.425 245.73 111.423 245.743 111.423 245.756V249.113C111.423 249.168 111.467 249.211 111.521 249.211H114.878C114.904 249.211 114.929 249.201 114.948 249.182C114.966 249.164 114.977 249.139 114.977 249.113V245.756C114.977 245.73 114.966 245.705 114.948 245.687C114.929 245.668 114.904 245.658 114.878 245.657H111.521Z" fill="#1B1B1B"/>
<path d="M251.619 230.355H156.836C154.927 230.355 153.38 231.903 153.38 233.811C153.38 235.719 154.927 237.266 156.836 237.266H251.619C253.528 237.266 255.075 235.719 255.075 233.811C255.075 231.903 253.528 230.355 251.619 230.355Z" fill="#1B1B1B" fill-opacity="0.07"/>
<path d="M209.164 246.152H156.836C154.927 246.152 153.38 247.7 153.38 249.608C153.38 251.516 154.927 253.063 156.836 253.063H209.164C211.072 253.063 212.619 251.516 212.619 249.608C212.619 247.7 211.072 246.152 209.164 246.152Z" fill="#1B1B1B" fill-opacity="0.07"/>
</g>
</g>
</g>
<defs>
<linearGradient id="paint0_linear_31_590" x1="111.426" y1="49.6751" x2="47.2499" y2="49.6751" gradientUnits="userSpaceOnUse">
<stop stop-color="#1B1B1B"/>
<stop offset="1" stop-color="#1B1B1B" stop-opacity="0"/>
</linearGradient>
<linearGradient id="paint1_linear_31_590" x1="78.8428" y1="146.431" x2="14.6669" y2="146.431" gradientUnits="userSpaceOnUse">
<stop stop-color="#1B1B1B"/>
<stop offset="1" stop-color="#1B1B1B" stop-opacity="0"/>
</linearGradient>
<linearGradient id="paint2_linear_31_590" x1="144.001" y1="243.19" x2="79.8251" y2="243.19" gradientUnits="userSpaceOnUse">
<stop stop-color="#1B1B1B"/>
<stop offset="1" stop-color="#1B1B1B" stop-opacity="0"/>
</linearGradient>
<clipPath id="clip0_31_590">
<rect width="338.67" height="288.86" fill="white" transform="translate(0.340088 0.25)"/>
</clipPath>
<clipPath id="clip1_31_590">
<rect width="338.67" height="288.86" fill="white" transform="translate(0.340088 0.25)"/>
</clipPath>
<clipPath id="clip2_31_590">
<rect width="338.67" height="288.86" fill="white" transform="translate(0.340088 0.25)"/>
</clipPath>
</defs>
</svg>
