<svg width="339" height="290" viewBox="0 0 339 290" fill="none" xmlns="http://www.w3.org/2000/svg">
<g clip-path="url(#clip0_31_527)">
<g clip-path="url(#clip1_31_527)">
<g clip-path="url(#clip2_31_527)">
<path fill-rule="evenodd" clip-rule="evenodd" d="M315.796 3.74347H195.487C185.244 3.74347 176.94 12.0469 176.94 22.2906V267.921C176.94 278.165 185.244 286.469 195.487 286.469H315.796C326.04 286.469 334.344 278.165 334.344 267.921V22.2906C334.344 12.0469 326.04 3.74347 315.796 3.74347ZM195.487 2.23938C184.414 2.23938 175.436 11.2171 175.436 22.2906V267.921C175.436 278.996 184.414 287.972 195.487 287.972H315.796C326.87 287.972 335.848 278.996 335.848 267.921V22.2906C335.848 11.2171 326.87 2.23938 315.796 2.23938H195.487Z" fill="#1B1B1B" fill-opacity="0.07"/>
<path d="M242.109 122.046H223.061C221.123 122.046 219.552 123.617 219.552 125.555C219.552 127.493 221.123 129.064 223.061 129.064H242.109C244.047 129.064 245.618 127.493 245.618 125.555C245.618 123.617 244.047 122.046 242.109 122.046Z" fill="#1B1B1B" fill-opacity="0.07"/>
<path d="M255.143 144.104H223.061C221.123 144.104 219.552 145.675 219.552 147.613C219.552 149.552 221.123 151.123 223.061 151.123H255.143C257.081 151.123 258.652 149.552 258.652 147.613C258.652 145.675 257.081 144.104 255.143 144.104Z" fill="#1B1B1B" fill-opacity="0.07"/>
<path d="M242.109 166.16H223.061C221.123 166.16 219.552 167.731 219.552 169.669C219.552 171.607 221.123 173.178 223.061 173.178H242.109C244.047 173.178 245.618 171.607 245.618 169.669C245.618 167.731 244.047 166.16 242.109 166.16Z" fill="#1B1B1B" fill-opacity="0.07"/>
<path d="M255.143 188.216H223.061C221.123 188.216 219.552 189.787 219.552 191.725C219.552 193.663 221.123 195.235 223.061 195.235H255.143C257.081 195.235 258.652 193.663 258.652 191.725C258.652 189.787 257.081 188.216 255.143 188.216Z" fill="#1B1B1B" fill-opacity="0.07"/>
<path d="M206.516 132.573C210.392 132.573 213.534 129.43 213.534 125.554C213.534 121.678 210.392 118.536 206.516 118.536C202.64 118.536 199.498 121.678 199.498 125.554C199.498 129.43 202.64 132.573 206.516 132.573Z" fill="#1B1B1B"/>
<mask id="mask0_31_527" style="mask-type:luminance" maskUnits="userSpaceOnUse" x="203" y="122" width="7" height="7">
<path d="M203.513 122.546H209.528V128.561H203.513V122.546Z" fill="white"/>
</mask>
<g mask="url(#mask0_31_527)">
<path d="M204.641 125.764L205.894 127.017L208.627 124.352" stroke="white" stroke-width="1.19531" stroke-linecap="round" stroke-linejoin="round"/>
</g>
<path d="M206.516 154.633C210.392 154.633 213.534 151.491 213.534 147.615C213.534 143.738 210.392 140.596 206.516 140.596C202.64 140.596 199.498 143.738 199.498 147.615C199.498 151.491 202.64 154.633 206.516 154.633Z" fill="#1B1B1B"/>
<mask id="mask1_31_527" style="mask-type:luminance" maskUnits="userSpaceOnUse" x="203" y="144" width="7" height="7">
<path d="M203.513 144.606H209.528V150.622H203.513V144.606Z" fill="white"/>
</mask>
<g mask="url(#mask1_31_527)">
<path d="M204.641 147.824L205.894 149.077L208.627 146.411" stroke="white" stroke-width="1.19531" stroke-linecap="round" stroke-linejoin="round"/>
</g>
<path d="M206.516 176.689C210.392 176.689 213.534 173.547 213.534 169.671C213.534 165.795 210.392 162.652 206.516 162.652C202.64 162.652 199.498 165.795 199.498 169.671C199.498 173.547 202.64 176.689 206.516 176.689Z" fill="#1B1B1B"/>
<mask id="mask2_31_527" style="mask-type:luminance" maskUnits="userSpaceOnUse" x="203" y="166" width="7" height="7">
<path d="M203.513 166.662H209.528V172.677H203.513V166.662Z" fill="white"/>
</mask>
<g mask="url(#mask2_31_527)">
<path d="M204.641 169.88L205.894 171.133L208.627 168.468" stroke="white" stroke-width="1.19531" stroke-linecap="round" stroke-linejoin="round"/>
</g>
<path d="M206.516 198.745C210.392 198.745 213.534 195.602 213.534 191.726C213.534 187.85 210.392 184.708 206.516 184.708C202.64 184.708 199.498 187.85 199.498 191.726C199.498 195.602 202.64 198.745 206.516 198.745Z" fill="#1B1B1B"/>
<mask id="mask3_31_527" style="mask-type:luminance" maskUnits="userSpaceOnUse" x="203" y="188" width="7" height="7">
<path d="M203.513 188.718H209.528V194.733H203.513V188.718Z" fill="white"/>
</mask>
<g mask="url(#mask3_31_527)">
<path d="M204.641 191.935L205.894 193.189L208.627 190.523" stroke="white" stroke-width="1.19531" stroke-linecap="round" stroke-linejoin="round"/>
</g>
<path d="M242.929 51.6433C241.272 51.6433 239.941 51.1891 238.939 50.2797C237.936 49.3573 237.435 47.9677 237.435 46.109V42.5809C237.435 40.777 237.936 39.4064 238.939 38.471C239.941 37.5218 241.272 37.0466 242.929 37.0466C244.599 37.0466 245.93 37.5218 246.919 38.471C247.921 39.4064 248.423 40.777 248.423 42.5809V46.11C248.423 47.9687 247.921 49.3583 246.919 50.2807C245.93 51.1901 244.599 51.6453 242.929 51.6453V51.6433ZM242.929 49.3573C243.931 49.3573 244.666 49.0834 245.134 48.5355C245.615 47.9877 245.857 47.2057 245.857 46.1897V42.4604C245.857 41.4304 245.589 40.6555 245.055 40.1335C244.533 39.5996 243.824 39.3317 242.929 39.3317C242.007 39.3317 241.284 39.6056 240.764 40.1534C240.255 40.7013 240.001 41.4703 240.001 42.4604V46.1897C240.001 47.2456 240.242 48.0405 240.724 48.5754C241.218 49.0973 241.953 49.3573 242.929 49.3573ZM230.484 51.6473C229.388 51.6473 228.439 51.4531 227.637 51.0656C226.848 50.6771 226.24 50.1293 225.812 49.421C225.384 48.7128 225.171 47.8901 225.171 46.9547V46.7545H227.777V46.9338C227.777 47.6032 227.998 48.1779 228.439 48.659C228.893 49.1272 229.561 49.3613 230.444 49.3613C231.327 49.3613 232.001 49.1272 232.469 48.659C232.95 48.1779 233.191 47.5564 233.191 46.7944V46.5941C233.191 45.8451 232.95 45.2494 232.469 44.8092C232.001 44.3679 231.413 44.1478 230.705 44.1478C230.317 44.1478 229.996 44.2005 229.742 44.3071C229.511 44.3994 229.299 44.5357 229.12 44.7085C228.971 44.8556 228.837 45.0171 228.72 45.1907H225.612V37.3295H235.196V39.6564H228.178V43.0849H228.54C228.673 42.9106 228.853 42.7443 229.08 42.5839C229.307 42.4235 229.601 42.289 229.963 42.1825C230.381 42.0682 230.813 42.0142 231.246 42.0221C232.075 42.0221 232.83 42.1954 233.512 42.5431C234.192 42.8889 234.756 43.4254 235.136 44.087C235.55 44.7554 235.757 45.5851 235.757 46.5732V46.8143C235.757 47.8034 235.544 48.659 235.116 49.3812C234.701 50.1024 234.1 50.6642 233.312 51.0646C232.523 51.4531 231.581 51.6473 230.484 51.6473ZM219.08 51.3664V48.5176H212.183V45.5492L217.035 37.3285H221.647V46.2316H223.972V48.5176H221.647V51.3654L219.08 51.3664ZM214.629 46.2326H219.08V38.9751H218.719L214.629 45.9128V46.2326ZM205.697 51.6453C204.614 51.6453 203.658 51.4521 202.829 51.0646C202.001 50.6761 201.352 50.1223 200.884 49.4011C200.417 48.678 200.183 47.8094 200.183 46.7934V46.2326H202.79V46.7934C202.79 47.6361 203.05 48.2706 203.572 48.6989C204.093 49.1123 204.801 49.3194 205.697 49.3194C206.606 49.3194 207.281 49.1401 207.722 48.7786C208.176 48.418 208.404 47.9568 208.404 47.395C208.404 47.0065 208.297 46.6938 208.083 46.4527C207.869 46.2116 207.555 46.0184 207.141 45.871C206.644 45.6865 206.135 45.539 205.617 45.4297L205.155 45.3301C204.193 45.1159 203.364 44.849 202.669 44.5273C201.987 44.1936 201.459 43.7593 201.085 43.2244C200.724 42.6895 200.543 41.9942 200.543 41.1386C200.543 40.2839 200.744 39.5548 201.145 38.9532C201.559 38.3386 202.134 37.8704 202.869 37.5497C203.618 37.216 204.494 37.0486 205.496 37.0486C206.499 37.0486 207.388 37.222 208.164 37.5696C208.951 37.9043 209.567 38.4123 210.008 39.0936C210.462 39.762 210.69 40.6047 210.69 41.6197V42.2223H208.083V41.6197C208.083 41.0858 207.976 40.6575 207.762 40.3367C207.56 40.0016 207.248 39.7467 206.88 39.6155C206.492 39.4542 206.031 39.3745 205.496 39.3745C204.694 39.3745 204.099 39.5279 203.712 39.8357C203.337 40.1295 203.15 40.5379 203.15 41.0589C203.15 41.4065 203.237 41.7004 203.411 41.9414C203.598 42.1815 203.872 42.3827 204.233 42.5431C204.594 42.7024 205.055 42.8429 205.617 42.9634L206.078 43.063C207.081 43.2782 207.949 43.5511 208.684 43.8858C209.42 44.2205 209.987 44.6617 210.389 45.2096C210.803 45.7574 211.01 46.4597 211.01 47.3143C211.01 48.1709 210.79 48.926 210.349 49.5804C209.921 50.2219 209.306 50.7299 208.504 51.1044C207.715 51.465 206.78 51.6463 205.697 51.6463V51.6453ZM204.474 53.6913V35.0037H206.88V53.6903L204.474 53.6913Z" fill="#1B1B1B"/>
<path fill-rule="evenodd" clip-rule="evenodd" d="M142.352 3.74347H22.0444C11.7987 3.74347 3.49628 12.0469 3.49628 22.2906V191.725C3.49628 201.969 11.7997 210.273 22.0434 210.273H142.352C152.596 210.273 160.9 201.969 160.9 191.725V22.2906C160.9 12.0469 152.596 3.74347 142.352 3.74347ZM22.0444 2.23938C10.9689 2.23938 1.99219 11.2171 1.99219 22.2906V191.725C1.99219 202.8 10.9699 211.777 22.0434 211.777H142.352C153.426 211.777 162.404 202.8 162.404 191.725V22.2906C162.404 11.2171 153.426 2.23938 142.352 2.23938H22.0444Z" fill="#1B1B1B" fill-opacity="0.07"/>
<path d="M125.385 147.614H38.9948C31.8432 147.614 26.0457 153.411 26.0457 160.563V174.767C26.0457 181.919 31.8432 187.716 38.9948 187.716H125.385C132.536 187.716 138.334 181.919 138.334 174.767V160.563C138.334 153.411 132.536 147.614 125.385 147.614Z" fill="#1B1B1B"/>
<path d="M107.675 171.842C107.074 171.842 106.548 171.718 106.098 171.47C105.654 171.217 105.288 170.847 105.04 170.399C104.791 169.934 104.667 169.396 104.667 168.786V168.642C104.667 168.024 104.791 167.487 105.04 167.03C105.274 166.58 105.633 166.208 106.074 165.959C106.524 165.702 107.042 165.575 107.626 165.575C108.196 165.575 108.693 165.702 109.118 165.959C109.552 166.208 109.888 166.557 110.129 167.006C110.37 167.456 110.49 167.981 110.49 168.582V169.051H105.93C105.946 169.573 106.119 169.99 106.448 170.302C106.785 170.607 107.202 170.76 107.699 170.76C108.164 170.76 108.513 170.656 108.746 170.447C108.986 170.239 109.17 169.998 109.299 169.726L110.322 170.255C110.187 170.511 110.022 170.749 109.829 170.965C109.62 171.213 109.343 171.422 108.998 171.59C108.653 171.759 108.212 171.842 107.675 171.842ZM105.942 168.101H109.227C109.195 167.652 109.034 167.303 108.746 167.054C108.457 166.798 108.08 166.67 107.614 166.67C107.149 166.67 106.769 166.798 106.472 167.054C106.183 167.303 106.007 167.652 105.942 168.101ZM100.874 171.841C100.297 171.841 99.8519 171.738 99.5391 171.529C99.2622 171.349 99.0279 171.111 98.8528 170.831H98.6605V171.673H97.4453V163.252H98.6844V166.548H98.8767C98.9733 166.388 99.1018 166.235 99.2622 166.091C99.4226 165.939 99.6347 165.814 99.8997 165.718C100.165 165.622 100.489 165.574 100.874 165.574C101.361 165.566 101.84 165.693 102.259 165.942C102.677 166.19 103.019 166.55 103.245 166.981C103.493 167.439 103.617 167.984 103.617 168.617V168.798C103.617 169.44 103.489 169.989 103.233 170.446C103.004 170.872 102.664 171.227 102.248 171.473C101.832 171.719 101.357 171.846 100.874 171.841ZM100.513 170.759C101.051 170.759 101.491 170.586 101.837 170.242C102.19 169.897 102.366 169.403 102.366 168.761V168.654C102.366 168.019 102.194 167.53 101.849 167.186C101.503 166.841 101.059 166.669 100.513 166.669C99.9843 166.669 99.5431 166.841 99.1895 167.186C98.8448 167.53 98.6725 168.019 98.6725 168.654V168.761C98.6725 169.403 98.8448 169.897 99.1905 170.242C99.5431 170.586 99.9843 170.759 100.513 170.759ZM94.5616 171.673V165.742H95.8008V171.673H94.5616ZM95.1872 164.935C94.961 164.941 94.7413 164.859 94.5736 164.707C94.4936 164.627 94.431 164.531 94.3895 164.426C94.3481 164.32 94.3287 164.207 94.3325 164.094C94.3325 163.845 94.4122 163.645 94.5736 163.492C94.655 163.414 94.7511 163.352 94.8564 163.311C94.9617 163.27 95.0741 163.25 95.1872 163.252C95.4362 163.252 95.6404 163.332 95.8008 163.492C95.881 163.57 95.9438 163.664 95.9852 163.767C96.0266 163.871 96.0455 163.982 96.0408 164.094C96.0408 164.343 95.9611 164.547 95.8008 164.707C95.7185 164.784 95.622 164.843 95.5167 164.883C95.4114 164.922 95.2994 164.94 95.1872 164.935ZM90.1231 171.674V165.742H91.3383V166.441H91.5305C91.6113 166.21 91.774 166.017 91.9877 165.899C92.2039 165.778 92.4689 165.718 92.7816 165.718H93.4908V166.837H92.7338C92.3324 166.837 92.0037 166.95 91.7477 167.175C91.4897 167.391 91.3622 167.728 91.3622 168.185V171.674H90.1231ZM85.9604 171.842C85.4216 171.849 84.8891 171.726 84.4085 171.482C83.9524 171.242 83.5727 170.88 83.3128 170.435C83.0489 169.978 82.9164 169.429 82.9164 168.786V168.63C82.9164 167.988 83.0488 167.444 83.3138 166.994C83.5857 166.537 83.9513 166.189 84.4085 165.948C84.8737 165.698 85.3907 165.575 85.9604 165.575C86.5302 165.575 87.0153 165.679 87.4157 165.888C87.8171 166.096 88.1379 166.373 88.3789 166.717C88.6279 167.062 88.7873 167.444 88.86 167.86L87.6568 168.113C87.62 167.858 87.5341 167.613 87.4038 167.391C87.2735 167.173 87.0866 166.994 86.8629 166.874C86.6298 166.745 86.3369 166.682 85.9843 166.682C85.6397 166.682 85.3269 166.761 85.046 166.922C84.7688 167.079 84.5432 167.313 84.3966 167.596C84.2362 167.885 84.1555 168.238 84.1555 168.655V168.762C84.1555 169.18 84.2352 169.536 84.3966 169.833C84.5559 170.13 84.7731 170.355 85.046 170.508C85.3269 170.66 85.6397 170.736 85.9843 170.736C86.5053 170.736 86.9027 170.603 87.1756 170.339C87.4486 170.066 87.6209 169.721 87.6936 169.304L88.8959 169.581C88.7993 169.99 88.6269 170.367 88.3779 170.712C88.1299 171.063 87.7995 171.348 87.4157 171.542C87.0153 171.743 86.5292 171.842 85.9604 171.842ZM79.5058 171.842C78.7517 171.842 78.1262 171.674 77.6291 171.337C77.1311 171.001 76.8263 170.491 76.7147 169.809L77.8702 169.532C77.9339 169.861 78.0415 170.122 78.1939 170.314C78.3463 170.508 78.5346 170.643 78.7597 170.724C78.9918 170.804 79.2408 170.844 79.5058 170.844C79.8982 170.844 80.199 170.768 80.4082 170.615C80.6244 170.463 80.7329 170.267 80.7329 170.026C80.7329 169.785 80.6333 169.609 80.4321 169.497C80.2309 169.384 79.9341 169.292 79.5416 169.22L79.1332 169.148C78.7579 169.083 78.3906 168.978 78.0375 168.835C77.7328 168.716 77.4636 168.522 77.2556 168.269C77.0634 168.029 76.9667 167.72 76.9667 167.343C76.9667 166.781 77.1759 166.349 77.5923 166.044C78.0096 165.731 78.5635 165.575 79.2528 165.575C79.9181 165.575 80.464 165.727 80.8893 166.032C81.3216 166.328 81.6025 166.733 81.731 167.246L80.5756 167.572C80.5038 167.211 80.3514 166.959 80.1194 166.814C79.8863 166.662 79.5974 166.585 79.2528 166.585C78.9161 166.585 78.6511 166.65 78.4589 166.777C78.3683 166.829 78.2935 166.905 78.2426 166.996C78.1917 167.087 78.1666 167.191 78.17 167.295C78.17 167.535 78.2626 167.712 78.4469 167.824C78.6392 167.937 78.8952 168.02 79.2169 168.077L79.6382 168.149C80.0626 168.222 80.4521 168.321 80.8047 168.45C81.1583 168.578 81.4342 168.762 81.6354 169.004C81.8436 169.244 81.9482 169.564 81.9482 169.966C81.9482 170.559 81.727 171.021 81.2858 171.349C80.8445 171.678 80.2518 171.842 79.5058 171.842ZM72.9993 171.841C72.4216 171.841 71.9763 171.738 71.6646 171.529C71.3873 171.349 71.1527 171.111 70.9773 170.831H70.786V171.673H69.5708V163.252H70.8099V166.548H71.0022C71.0988 166.388 71.2263 166.235 71.3867 166.091C71.5712 165.924 71.7882 165.797 72.0241 165.718C72.2891 165.622 72.6148 165.574 72.9993 165.574C73.4862 165.565 73.9658 165.693 74.3844 165.941C74.8031 166.19 75.1444 166.55 75.37 166.981C75.618 167.439 75.7425 167.984 75.7425 168.617V168.798C75.7425 169.44 75.614 169.989 75.3571 170.446C75.1291 170.872 74.7888 171.227 74.3732 171.473C73.9575 171.719 73.4823 171.846 72.9993 171.841ZM72.6387 170.759C73.1766 170.759 73.6169 170.586 73.9615 170.242C74.3151 169.897 74.4915 169.403 74.4915 168.761V168.654C74.4915 168.019 74.3191 167.53 73.9735 167.186C73.6288 166.841 73.1836 166.669 72.6387 166.669C72.1088 166.669 71.6675 166.841 71.3149 167.186C70.9703 167.53 70.797 168.019 70.797 168.654V168.761C70.797 169.403 70.9703 169.897 71.3149 170.242C71.6675 170.586 72.1088 170.759 72.6387 170.759ZM64.6591 171.782C64.2108 171.782 63.8094 171.681 63.4568 171.481C63.1042 171.281 62.816 170.984 62.6261 170.626C62.4258 170.258 62.3252 169.816 62.3252 169.303V165.742H63.5644V169.219C63.5644 169.732 63.6939 170.113 63.9499 170.362C64.2068 170.602 64.5634 170.723 65.0207 170.723C65.5257 170.723 65.9311 170.554 66.2359 170.218C66.5487 169.872 66.704 169.379 66.704 168.738V165.742H67.9442V171.673H66.7289V170.783H66.5367C66.4241 171.024 66.2239 171.252 65.9351 171.469C65.6462 171.677 65.2199 171.782 64.6591 171.782ZM58.0799 171.84C57.4464 171.84 56.8846 171.729 56.3955 171.504C55.9229 171.294 55.5215 170.951 55.2401 170.518C54.9681 170.076 54.8317 169.543 54.8317 168.918V168.617H56.1186V168.918C56.1186 169.511 56.2949 169.956 56.6485 170.253C57.0091 170.549 57.4862 170.698 58.0799 170.698C58.6815 170.698 59.1348 170.573 59.4396 170.325C59.7444 170.068 59.8968 169.74 59.8968 169.338C59.8968 169.074 59.8241 168.857 59.6796 168.689C59.5128 168.506 59.3014 168.369 59.066 168.291C58.7563 168.174 58.4388 168.077 58.1158 168.003L57.6705 167.895C57.1872 167.785 56.7159 167.627 56.263 167.426C55.8977 167.256 55.5827 166.995 55.3486 166.668C55.1325 166.355 55.0239 165.953 55.0239 165.464C55.0239 164.967 55.1434 164.542 55.3845 164.189C55.6441 163.828 55.998 163.545 56.4075 163.371C56.8408 163.178 57.3498 163.083 57.9355 163.083C58.5212 163.083 59.0421 163.182 59.4993 163.384C59.9436 163.567 60.3245 163.876 60.595 164.273C60.859 164.667 60.9915 165.16 60.9915 165.753V166.187H59.7035V165.753C59.7035 165.393 59.6278 165.1 59.4754 164.875C59.329 164.649 59.1139 164.476 58.8618 164.382C58.5656 164.272 58.2513 164.219 57.9355 164.225C57.4225 164.225 57.0211 164.334 56.7322 164.55C56.4513 164.758 56.3119 165.051 56.3119 165.429C56.3119 165.686 56.3716 165.898 56.4911 166.066C56.6206 166.226 56.8049 166.359 57.045 166.463C57.286 166.567 57.5868 166.66 57.9474 166.739L58.3927 166.848C58.9375 166.969 59.4186 167.125 59.837 167.317C60.2534 167.501 60.5821 167.754 60.8231 168.075C61.0632 168.396 61.1837 168.809 61.1837 169.314C61.1837 169.819 61.0552 170.261 60.7992 170.638C60.5502 171.015 60.1936 171.311 59.7284 171.528C59.2633 171.737 58.7134 171.84 58.0799 171.84Z" fill="white"/>
<path d="M68.6365 51.6433C66.979 51.6433 65.6482 51.1891 64.6461 50.2797C63.6441 49.3573 63.1421 47.9677 63.1421 46.109V42.5809C63.1421 40.777 63.6441 39.4064 64.6461 38.471C65.6492 37.5218 66.979 37.0466 68.6365 37.0466C70.3079 37.0466 71.6377 37.5218 72.6268 38.471C73.6299 39.4064 74.1309 40.777 74.1309 42.5809V46.11C74.1309 47.9687 73.6299 49.3583 72.6268 50.2807C71.6377 51.1901 70.3079 51.6453 68.6365 51.6453V51.6433ZM68.6365 49.3573C69.6395 49.3573 70.3746 49.0834 70.8428 48.5355C71.3239 47.9877 71.564 47.2057 71.564 46.1897V42.4604C71.564 41.4304 71.297 40.6555 70.7621 40.1335C70.2412 39.5996 69.532 39.3317 68.6365 39.3317C67.7141 39.3317 66.9929 39.6056 66.471 40.1534C65.963 40.7013 65.709 41.4703 65.709 42.4604V46.1897C65.709 47.2456 65.95 48.0405 66.4311 48.5754C66.9262 49.0973 67.6613 49.3573 68.6365 49.3573ZM56.1993 51.6473C55.1036 51.6473 54.1544 51.4531 53.3525 51.0656C52.5636 50.6771 51.956 50.1293 51.5277 49.421C51.0993 48.7128 50.8862 47.8901 50.8862 46.9547V46.7545H53.4929V46.9338C53.4929 47.6032 53.7131 48.1779 54.1544 48.659C54.6086 49.1272 55.2779 49.3613 56.1595 49.3613C57.042 49.3613 57.7174 49.1272 58.1845 48.659C58.6666 48.1779 58.9067 47.5564 58.9067 46.7944V46.5941C58.9067 45.8451 58.6666 45.2494 58.1845 44.8092C57.7164 44.3679 57.1287 44.1478 56.4204 44.1478C56.032 44.1478 55.7122 44.2005 55.4582 44.3071C55.227 44.3994 55.0159 44.5357 54.8367 44.7085C54.6873 44.8556 54.5528 45.0171 54.4352 45.1907H51.3274V37.3295H60.9118V39.6564H53.8934V43.0849H54.255C54.3884 42.9106 54.5687 42.7443 54.7958 42.5839C55.0664 42.4032 55.3644 42.2677 55.6784 42.1825C56.0962 42.0682 56.5282 42.0142 56.9613 42.0221C57.7901 42.0221 58.5451 42.1954 59.2274 42.5431C59.9072 42.889 60.4714 43.4255 60.8511 44.087C61.2664 44.7554 61.4736 45.5851 61.4736 46.5732V46.8143C61.4736 47.8034 61.2594 48.659 60.8311 49.3812C60.4168 50.1024 59.8151 50.6642 59.0272 51.0646C58.2383 51.4531 57.296 51.6473 56.1993 51.6473ZM39.0566 51.3624V49.679C39.0566 48.7029 39.218 47.894 39.5387 47.2526C39.8521 46.6064 40.3291 46.0535 40.9223 45.6489C41.5369 45.2205 42.286 44.8719 43.1685 44.605L44.5112 44.1846C44.9509 44.0501 45.3694 43.8543 45.7543 43.6029C46.089 43.3618 46.342 43.075 46.5163 42.7403C46.7036 42.4066 46.7972 42.0251 46.7972 41.5978V41.5181C46.7972 40.8487 46.5701 40.3208 46.1159 39.9343C45.6617 39.5319 45.0401 39.3317 44.2512 39.3317C43.4753 39.3317 42.8468 39.5458 42.3656 39.9731C41.8975 40.3875 41.6644 40.9892 41.6644 41.7781V42.1386H39.0965V41.8179C39.0965 40.8019 39.3236 39.9403 39.7788 39.2321C40.2285 38.5276 40.8679 37.9645 41.6236 37.6074C42.4115 37.2329 43.287 37.0456 44.2502 37.0456C45.2125 37.0456 46.0811 37.2329 46.857 37.6074C47.632 37.968 48.2406 38.483 48.6808 39.1514C49.1361 39.8068 49.3632 40.5818 49.3632 41.4772V41.6775C49.3632 42.5739 49.1759 43.3349 48.8014 43.9635C48.4359 44.5831 47.9269 45.1058 47.3172 45.4875C46.6446 45.8951 45.9243 46.2183 45.1726 46.4497L43.8887 46.8511C43.3139 47.0254 42.8667 47.2197 42.5459 47.4328C42.2252 47.6331 41.9981 47.8612 41.8636 48.1142C41.7441 48.3552 41.6833 48.6491 41.6833 48.9967V49.0764H49.2436V51.3624H39.0566ZM32.2534 51.6453C31.1696 51.6453 30.2144 51.4521 29.3846 51.0646C28.5569 50.6761 27.9084 50.1223 27.4403 49.4011C26.9721 48.678 26.739 47.8094 26.739 46.7934V46.2326H29.3458V46.7934C29.3458 47.6361 29.6058 48.2706 30.1277 48.6989C30.6487 49.1123 31.3569 49.3194 32.2534 49.3194C33.1618 49.3194 33.8371 49.1401 34.2784 48.7786C34.7326 48.418 34.9597 47.9568 34.9597 47.395C34.9597 47.0065 34.8531 46.6938 34.639 46.4527C34.4248 46.2116 34.1111 46.0184 33.6967 45.871C33.2003 45.6865 32.6909 45.539 32.1727 45.4297L31.7115 45.3301C30.7493 45.1159 29.9205 44.849 29.2253 44.5273C28.5439 44.1936 28.015 43.7593 27.6415 43.2244C27.2799 42.6895 27.0996 41.9942 27.0996 41.1386C27.0996 40.2839 27.2998 39.5548 27.7012 38.9532C28.1156 38.3386 28.6904 37.8704 29.4255 37.5497C30.1745 37.216 31.0491 37.0486 32.0521 37.0486C33.0552 37.0486 33.9447 37.222 34.7197 37.5696C35.5076 37.9043 36.1232 38.4123 36.5644 39.0936C37.0186 39.762 37.2458 40.6047 37.2458 41.6197V42.2223H34.639V41.6197C34.639 41.0858 34.5324 40.6575 34.3182 40.3367C34.1162 40.0016 33.8044 39.7467 33.4357 39.6155C33.0482 39.4542 32.587 39.3745 32.0521 39.3745C31.2503 39.3745 30.6556 39.5279 30.2682 39.8357C29.8936 40.1295 29.7064 40.5379 29.7064 41.0589C29.7064 41.4065 29.793 41.7004 29.9673 41.9414C30.1546 42.1815 30.4285 42.3827 30.7891 42.5431C31.1497 42.7024 31.6109 42.8429 32.1727 42.9634L32.6339 43.063C33.6369 43.2782 34.5055 43.5511 35.2406 43.8858C35.9757 44.2205 36.5435 44.6617 36.9449 45.2096C37.3593 45.7574 37.5665 46.4597 37.5665 47.3143C37.5665 48.1709 37.3464 48.926 36.9051 49.5804C36.4768 50.2219 35.8622 50.7299 35.0603 51.1044C34.2714 51.465 33.3361 51.6463 32.2534 51.6463V51.6453ZM31.0302 53.6913V35.0037H33.4357V53.6903L31.0302 53.6913Z" fill="#1B1B1B"/>
<path d="M135.828 70.4147H29.5549C27.6168 70.4147 26.0457 71.9858 26.0457 73.9239C26.0457 75.862 27.6168 77.4331 29.5549 77.4331H135.828C137.766 77.4331 139.337 75.862 139.337 73.9239C139.337 71.9858 137.766 70.4147 135.828 70.4147Z" fill="#1B1B1B" fill-opacity="0.07"/>
<path d="M88.7066 87.4578H29.5549C27.6168 87.4578 26.0457 89.0289 26.0457 90.967C26.0457 92.9051 27.6168 94.4762 29.5549 94.4762H88.7066C90.6447 94.4762 92.2158 92.9051 92.2158 90.967C92.2158 89.0289 90.6447 87.4578 88.7066 87.4578Z" fill="#1B1B1B" fill-opacity="0.07"/>
<path d="M68.6653 116.032H49.6171C47.679 116.032 46.1079 117.604 46.1079 119.542C46.1079 121.48 47.679 123.051 49.6171 123.051H68.6653C70.6034 123.051 72.1745 121.48 72.1745 119.542C72.1745 117.604 70.6034 116.032 68.6653 116.032Z" fill="#1B1B1B" fill-opacity="0.07"/>
<path d="M298.836 223.808H212.447C205.295 223.808 199.498 229.606 199.498 236.757V250.962C199.498 258.113 205.295 263.911 212.447 263.911H298.836C305.988 263.911 311.786 258.113 311.786 250.962V236.757C311.786 229.606 305.988 223.808 298.836 223.808Z" fill="#1B1B1B"/>
<path d="M308.276 70.4147H203.007C201.069 70.4147 199.498 71.9858 199.498 73.9239C199.498 75.862 201.069 77.4331 203.007 77.4331H308.276C310.214 77.4331 311.786 75.862 311.786 73.9239C311.786 71.9858 310.214 70.4147 308.276 70.4147Z" fill="#1B1B1B" fill-opacity="0.07"/>
<path d="M276.194 87.4578H203.007C201.069 87.4578 199.498 89.0289 199.498 90.967C199.498 92.9051 201.069 94.4762 203.007 94.4762H276.194C278.132 94.4762 279.704 92.9051 279.704 90.967C279.704 89.0289 278.132 87.4578 276.194 87.4578Z" fill="#1B1B1B" fill-opacity="0.07"/>
<path d="M33.0801 126.559C36.9563 126.559 40.0985 123.417 40.0985 119.541C40.0985 115.664 36.9563 112.522 33.0801 112.522C29.2039 112.522 26.0616 115.664 26.0616 119.541C26.0616 123.417 29.2039 126.559 33.0801 126.559Z" fill="#1B1B1B"/>
<mask id="mask4_31_527" style="mask-type:luminance" maskUnits="userSpaceOnUse" x="30" y="116" width="7" height="7">
<path d="M30.0769 116.532H36.0923V122.548H30.0769V116.532Z" fill="white"/>
</mask>
<g mask="url(#mask4_31_527)">
<path d="M31.2054 119.751L32.4585 121.004L35.1908 118.338" stroke="white" stroke-width="1.19531" stroke-linecap="round" stroke-linejoin="round"/>
</g>
<path d="M281.119 248.037C280.517 248.037 279.991 247.914 279.542 247.665C279.098 247.412 278.732 247.041 278.484 246.594C278.235 246.129 278.111 245.592 278.111 244.982V244.838C278.111 244.22 278.235 243.682 278.484 243.225C278.718 242.775 279.077 242.403 279.518 242.154C279.968 241.898 280.485 241.77 281.07 241.77C281.64 241.77 282.137 241.898 282.562 242.154C282.996 242.403 283.332 242.752 283.573 243.201C283.813 243.65 283.934 244.175 283.934 244.777V245.246H279.374C279.39 245.768 279.563 246.184 279.892 246.497C280.228 246.802 280.646 246.954 281.143 246.954C281.608 246.954 281.957 246.851 282.19 246.642C282.43 246.433 282.614 246.192 282.743 245.92L283.766 246.449C283.631 246.706 283.466 246.944 283.273 247.16C283.063 247.408 282.786 247.617 282.442 247.785C282.097 247.953 281.656 248.037 281.119 248.037ZM279.386 244.296H282.671C282.639 243.847 282.478 243.498 282.19 243.249C281.901 242.993 281.523 242.864 281.058 242.864C280.593 242.864 280.213 242.993 279.916 243.249C279.627 243.498 279.451 243.847 279.386 244.296ZM274.318 248.036C273.741 248.036 273.296 247.932 272.983 247.723C272.706 247.544 272.472 247.306 272.297 247.026H272.104V247.868H270.889V239.447H272.128V242.743H272.321C272.417 242.582 272.546 242.43 272.706 242.286C272.866 242.133 273.079 242.009 273.344 241.913C273.608 241.817 273.933 241.769 274.318 241.769C274.804 241.76 275.284 241.888 275.703 242.136C276.121 242.385 276.463 242.745 276.688 243.176C276.936 243.633 277.061 244.178 277.061 244.813V244.993C277.061 245.635 276.932 246.183 276.676 246.641C276.427 247.09 276.095 247.435 275.677 247.675C275.269 247.917 274.816 248.036 274.318 248.036ZM273.957 246.953C274.495 246.953 274.935 246.781 275.281 246.436C275.634 246.092 275.81 245.599 275.81 244.956V244.849C275.81 244.215 275.638 243.725 275.293 243.38C274.947 243.036 274.503 242.863 273.957 242.863C273.428 242.863 272.987 243.036 272.633 243.38C272.289 243.725 272.116 244.215 272.116 244.849V244.956C272.116 245.599 272.289 246.092 272.633 246.436C272.987 246.781 273.428 246.953 273.957 246.953ZM268.006 247.868V241.937H269.245V247.868H268.006ZM268.631 241.131C268.405 241.136 268.185 241.054 268.017 240.902C267.938 240.822 267.875 240.726 267.833 240.62C267.792 240.515 267.773 240.402 267.776 240.288C267.776 240.04 267.857 239.839 268.017 239.687C268.099 239.608 268.195 239.547 268.3 239.505C268.406 239.464 268.518 239.444 268.631 239.447C268.879 239.447 269.084 239.526 269.245 239.687C269.325 239.765 269.388 239.858 269.429 239.962C269.47 240.066 269.489 240.177 269.485 240.288C269.485 240.538 269.405 240.742 269.245 240.902C269.079 241.057 268.858 241.139 268.631 241.131ZM263.567 247.869V241.937H264.781V242.635H264.974C265.055 242.404 265.218 242.211 265.432 242.093C265.648 241.974 265.913 241.913 266.225 241.913H266.935V243.033H266.178C265.776 243.033 265.448 243.144 265.191 243.369C264.934 243.586 264.806 243.922 264.806 244.379V247.869H263.567ZM259.404 248.037C258.835 248.037 258.318 247.918 257.852 247.676C257.396 247.437 257.017 247.074 256.758 246.63C256.493 246.172 256.36 245.624 256.36 244.982V244.826C256.36 244.183 256.493 243.638 256.758 243.189C257.017 242.745 257.397 242.382 257.852 242.142C258.331 241.891 258.864 241.763 259.404 241.77C259.974 241.77 260.459 241.873 260.86 242.082C261.261 242.291 261.582 242.568 261.823 242.912C262.071 243.257 262.231 243.638 262.304 244.056L261.101 244.308C261.064 244.053 260.978 243.808 260.848 243.587C260.718 243.368 260.531 243.189 260.307 243.069C260.074 242.94 259.781 242.876 259.428 242.876C259.084 242.876 258.771 242.956 258.49 243.116C258.213 243.274 257.987 243.508 257.84 243.791C257.68 244.08 257.599 244.432 257.599 244.85V244.957C257.599 245.375 257.68 245.731 257.84 246.028C258.001 246.325 258.217 246.55 258.49 246.702C258.771 246.855 259.084 246.93 259.428 246.93C259.949 246.93 260.347 246.798 260.62 246.534C260.892 246.261 261.065 245.916 261.136 245.499L262.34 245.776C262.244 246.183 262.068 246.568 261.823 246.907C261.574 247.258 261.244 247.543 260.86 247.736C260.459 247.937 259.974 248.037 259.404 248.037ZM252.95 248.037C252.196 248.037 251.57 247.869 251.073 247.532C250.575 247.195 250.27 246.686 250.159 246.004L251.313 245.727C251.378 246.057 251.485 246.317 251.638 246.509C251.79 246.702 251.978 246.839 252.204 246.918C252.436 246.999 252.685 247.039 252.95 247.039C253.342 247.039 253.643 246.962 253.852 246.81C254.068 246.657 254.177 246.461 254.177 246.221C254.182 246.113 254.157 246.006 254.104 245.912C254.051 245.818 253.971 245.742 253.876 245.691C253.675 245.579 253.379 245.487 252.985 245.414L252.576 245.343C252.201 245.278 251.834 245.173 251.481 245.03C251.177 244.911 250.907 244.716 250.699 244.464C250.507 244.224 250.411 243.915 250.411 243.538C250.411 242.977 250.62 242.544 251.036 242.239C251.453 241.926 252.007 241.77 252.697 241.77C253.362 241.77 253.908 241.922 254.333 242.227C254.766 242.524 255.046 242.928 255.175 243.442L254.02 243.767C253.948 243.405 253.795 243.153 253.563 243.009C253.33 242.856 253.041 242.78 252.697 242.78C252.36 242.78 252.095 242.844 251.903 242.973C251.812 243.025 251.737 243.1 251.686 243.191C251.636 243.282 251.61 243.386 251.614 243.49C251.614 243.73 251.707 243.907 251.891 244.019C252.083 244.131 252.34 244.216 252.661 244.272L253.082 244.344C253.506 244.416 253.896 244.517 254.249 244.644C254.601 244.773 254.878 244.957 255.079 245.198C255.287 245.439 255.392 245.76 255.392 246.16C255.392 246.754 255.171 247.215 254.73 247.544C254.288 247.873 253.696 248.037 252.95 248.037ZM246.443 248.036C245.865 248.036 245.42 247.932 245.107 247.723C244.831 247.544 244.597 247.306 244.422 247.026H244.23V247.868H243.015V239.447H244.254V242.743H244.446C244.543 242.582 244.671 242.43 244.831 242.286C244.992 242.133 245.204 242.009 245.469 241.913C245.733 241.817 246.059 241.769 246.443 241.769C246.94 241.769 247.397 241.889 247.815 242.129C248.232 242.37 248.565 242.719 248.813 243.176C249.062 243.633 249.186 244.178 249.186 244.813V244.993C249.186 245.635 249.058 246.183 248.801 246.641C248.571 247.072 248.225 247.43 247.803 247.675C247.391 247.917 246.921 248.042 246.443 248.036ZM246.083 246.953C246.619 246.953 247.061 246.781 247.405 246.436C247.759 246.092 247.935 245.599 247.935 244.956V244.849C247.935 244.215 247.763 243.725 247.417 243.38C247.073 243.036 246.627 242.863 246.083 242.863C245.553 242.863 245.111 243.036 244.759 243.38C244.414 243.725 244.242 244.215 244.242 244.849V244.956C244.242 245.599 244.414 246.092 244.759 246.436C245.111 246.781 245.553 246.953 246.083 246.953ZM238.103 247.976C237.655 247.976 237.253 247.876 236.901 247.675C236.548 247.476 236.26 247.179 236.07 246.821C235.87 246.452 235.769 246.011 235.769 245.498V241.937H237.008V245.413C237.008 245.927 237.137 246.308 237.394 246.557C237.651 246.797 238.007 246.917 238.465 246.917C238.97 246.917 239.375 246.749 239.68 246.412C239.993 246.067 240.149 245.574 240.149 244.932V241.937H241.388V247.868H240.173V246.977H239.981C239.868 247.218 239.668 247.446 239.379 247.664C239.09 247.872 238.665 247.976 238.103 247.976ZM231.524 248.036C230.89 248.036 230.328 247.924 229.839 247.698C229.367 247.489 228.966 247.146 228.685 246.712C228.412 246.271 228.276 245.738 228.276 245.113V244.812H229.562V245.113C229.562 245.705 229.739 246.15 230.092 246.447C230.453 246.744 230.93 246.893 231.524 246.893C232.125 246.893 232.579 246.768 232.883 246.52C233.188 246.263 233.341 245.934 233.341 245.533C233.341 245.269 233.268 245.052 233.123 244.883C232.957 244.7 232.745 244.564 232.51 244.487C232.2 244.368 231.883 244.272 231.56 244.198L231.114 244.09C230.631 243.979 230.16 243.822 229.707 243.62C229.342 243.451 229.027 243.19 228.792 242.862C228.576 242.55 228.468 242.148 228.468 241.659C228.468 241.162 228.588 240.737 228.828 240.384C229.077 240.032 229.418 239.759 229.851 239.566C230.285 239.373 230.794 239.277 231.379 239.277C231.965 239.277 232.486 239.377 232.943 239.578C233.408 239.779 233.774 240.075 234.038 240.468C234.303 240.861 234.435 241.354 234.435 241.948V242.381H233.148V241.948C233.148 241.587 233.072 241.295 232.919 241.069C232.773 240.844 232.558 240.671 232.306 240.576C232.009 240.467 231.695 240.414 231.379 240.42C230.866 240.42 230.465 240.529 230.176 240.745C229.895 240.954 229.755 241.247 229.755 241.623C229.755 241.88 229.815 242.092 229.936 242.261C230.063 242.421 230.249 242.554 230.489 242.658C230.73 242.762 231.031 242.854 231.391 242.935L231.837 243.043C232.333 243.147 232.817 243.304 233.28 243.512C233.697 243.696 234.026 243.949 234.267 244.27C234.507 244.591 234.628 245.004 234.628 245.509C234.628 246.015 234.499 246.455 234.243 246.833C233.994 247.209 233.637 247.506 233.172 247.723C232.707 247.931 232.157 248.036 231.524 248.036Z" fill="white"/>
</g>
</g>
</g>
<defs>
<clipPath id="clip0_31_527">
<rect width="338.67" height="288.86" fill="white" transform="translate(0 0.25)"/>
</clipPath>
<clipPath id="clip1_31_527">
<rect width="338.67" height="288.86" fill="white" transform="translate(0 0.25)"/>
</clipPath>
<clipPath id="clip2_31_527">
<rect width="338.67" height="288.86" fill="white" transform="translate(0 0.25)"/>
</clipPath>
</defs>
</svg>
