<svg xmlns="http://www.w3.org/2000/svg" width="17" height="17" viewBox="0 0 17 17" fill="none">
  <path fill-rule="evenodd" clip-rule="evenodd" d="M3.06299 8.63002C3.06299 8.41784 3.14727 8.21436 3.2973 8.06433C3.44733 7.9143 3.65082 7.83002 3.86299 7.83002H12.363C12.5752 7.83002 12.7786 7.9143 12.9287 8.06433C13.0787 8.21436 13.163 8.41784 13.163 8.63002C13.163 8.84219 13.0787 9.04567 12.9287 9.1957C12.7786 9.34573 12.5752 9.43002 12.363 9.43002H3.86299C3.65082 9.43002 3.44733 9.34573 3.2973 9.1957C3.14727 9.04567 3.06299 8.84219 3.06299 8.63002Z" fill="white"/>
  <path fill-rule="evenodd" clip-rule="evenodd" d="M7.79687 4.06401C7.87117 3.98962 7.9594 3.93062 8.05652 3.89036C8.15364 3.8501 8.25774 3.82938 8.36287 3.82938C8.46801 3.82938 8.57211 3.8501 8.66923 3.89036C8.76634 3.93062 8.85458 3.98962 8.92887 4.06401L12.9289 8.06401C13.0785 8.21398 13.1625 8.41717 13.1625 8.62901C13.1625 8.84084 13.0785 9.04403 12.9289 9.19401L8.92887 13.194C8.77775 13.3378 8.57642 13.4169 8.36781 13.4145C8.15919 13.412 7.9598 13.3281 7.81215 13.1807C7.6645 13.0333 7.58026 12.8341 7.57741 12.6255C7.57456 12.4169 7.65331 12.2154 7.79687 12.064L11.2319 8.62901L7.79687 5.19501C7.64696 5.04499 7.56274 4.84159 7.56274 4.62951C7.56274 4.41742 7.64696 4.21402 7.79687 4.06401Z" fill="white"/>
</svg>