<svg xmlns="http://www.w3.org/2000/svg" width="54" height="43" viewBox="0 0 54 43" fill="none">
  <g clip-path="url(#clip0_31_714)">
    <path
      d="M50.584 0.110107V8.64711H45.61C41.493 8.64711 39.435 10.6951 39.435 14.7931V20.2561H41.836C45.153 20.2561 47.896 21.2811 50.069 23.3291C52.356 25.3801 53.5 27.9401 53.5 31.0121C53.5 34.3131 52.356 36.9881 50.07 39.0371C47.896 41.0861 45.152 42.1101 41.837 42.1101C38.52 42.1101 35.777 41.0291 33.603 38.8661C31.431 36.7031 30.345 33.9721 30.345 30.6711V14.7931C30.345 5.00411 35.26 0.110107 45.095 0.110107H50.584ZM20.74 0.110107V8.64711H15.766C11.65 8.64711 9.592 10.6951 9.592 14.7931V20.2561H11.992C15.309 20.2561 18.053 21.2811 20.226 23.3291C22.513 25.3791 23.656 27.9391 23.656 31.0121C23.656 34.3131 22.513 36.9881 20.226 39.0371C18.052 41.0861 15.308 42.1101 11.992 42.1101C8.676 42.1101 5.932 41.0291 3.759 38.8661C1.586 36.7031 0.5 33.9721 0.5 30.6711V14.7931C0.5 5.00411 5.417 0.110107 15.25 0.110107H20.74Z"
      fill="#C9FE58" />
  </g>
  <defs>
    <clipPath id="clip0_31_714">
      <rect width="53" height="42" fill="white" transform="translate(0.5 0.110107)" />
    </clipPath>
  </defs>
</svg>