<svg width="129" height="28" viewBox="0 0 129 28" fill="none" xmlns="http://www.w3.org/2000/svg">
<g clip-path="url(#clip0_31_383)">
<rect width="129" height="27" transform="translate(0 0.75)" fill="white"/>
<g clip-path="url(#clip1_31_383)">
<mask id="mask0_31_383" style="mask-type:luminance" maskUnits="userSpaceOnUse" x="0" y="1" width="129" height="27">
<path d="M0 1.29102H128.973V27.086H0V1.29102Z" fill="white"/>
</mask>
<g mask="url(#mask0_31_383)">
<path d="M9.81 26.504C7.17 26.42 5.175 25.852 3.825 24.798C2.475 23.716 1.5 22.51 0.9 21.178C0.3 19.82 0 18.446 0 17.06C0 15.618 0.285 14.231 0.855 12.9C1.455 11.54 2.43 10.334 3.78 9.28002C5.16 8.19802 6.9 7.64302 9 7.61502H23.579C25.679 7.64302 27.404 8.19802 28.754 9.27902C30.134 10.333 31.109 11.539 31.679 12.899C32.279 14.23 32.579 15.617 32.579 17.059C32.579 18.446 32.279 19.819 31.679 21.179C31.079 22.509 30.104 23.716 28.754 24.798C27.404 25.852 25.409 26.42 22.769 26.504H9.81ZM8.82 13.19C8.25 13.19 7.755 13.412 7.335 13.856C6.91121 14.2778 6.58817 14.7899 6.39 15.354C6.21 15.908 6.12 16.464 6.12 17.018C6.12 17.6 6.21 18.183 6.39 18.765C6.60169 19.3225 6.92302 19.8319 7.335 20.263C7.755 20.679 8.25 20.901 8.82 20.929H23.759C24.3209 20.9049 24.8523 20.6666 25.244 20.263C25.664 19.819 25.964 19.32 26.144 18.765C26.3499 18.2055 26.4565 17.6142 26.459 17.018C26.459 16.463 26.354 15.908 26.144 15.354C25.9736 14.7874 25.6642 14.2725 25.244 13.856C24.824 13.412 24.329 13.19 23.759 13.19H8.82ZM66.329 10.028C66.329 10.721 66.029 11.304 65.429 11.775C64.859 12.219 64.154 12.441 63.314 12.441H44.28C43.89 12.441 43.575 12.511 43.335 12.649C43.095 12.787 42.915 12.94 42.795 13.106C42.675 13.246 42.615 13.37 42.615 13.481C42.615 13.62 42.675 13.772 42.795 13.938C42.915 14.078 43.095 14.216 43.335 14.354C43.575 14.466 43.89 14.534 44.28 14.563H58.994C60.884 14.59 62.444 14.937 63.674 15.603C64.904 16.241 65.774 17.003 66.284 17.891C66.824 18.751 67.094 19.624 67.094 20.512C67.094 21.372 66.824 22.245 66.284 23.133C65.744 23.993 64.859 24.756 63.629 25.421C62.429 26.059 60.884 26.378 58.994 26.378C58.664 26.406 58.424 26.42 58.274 26.42H40.815C39.975 26.42 39.255 26.198 38.655 25.754C38.085 25.283 37.8 24.714 37.8 24.048C37.8 23.355 38.1 22.773 38.7 22.301C39.27 21.857 39.975 21.635 40.815 21.635H59.355C59.805 21.663 60.164 21.608 60.434 21.469C60.734 21.33 60.959 21.178 61.109 21.011C61.259 20.845 61.334 20.678 61.334 20.512C61.334 20.429 61.259 20.29 61.109 20.096C60.959 19.874 60.734 19.708 60.434 19.596C60.164 19.458 59.804 19.375 59.354 19.347H44.594C42.854 19.319 41.415 18.987 40.275 18.349C39.135 17.683 38.325 16.92 37.845 16.06C37.365 15.2 37.125 14.34 37.125 13.48C37.125 12.621 37.365 11.775 37.845 10.943C38.355 10.083 39.165 9.34802 40.275 8.73802C41.415 8.10002 42.855 7.75302 44.595 7.69802C44.895 7.67002 45.12 7.65602 45.27 7.65602H63.314C64.154 7.65602 64.859 7.89202 65.429 8.36402C66.029 8.80702 66.329 9.36201 66.329 10.028ZM75.19 1.29102C76 1.31902 76.69 1.59602 77.26 2.12302C77.83 2.62302 78.13 3.24602 78.16 3.99502V24.381C77.98 26.046 76.99 26.947 75.19 27.086C74.35 27.086 73.616 26.836 72.986 26.336C72.386 25.81 72.086 25.158 72.086 24.381V3.99502C72.116 3.21902 72.431 2.58102 73.031 2.08102C73.631 1.55502 74.35 1.29102 75.19 1.29102ZM93.184 26.504C90.544 26.42 88.55 25.852 87.2 24.798C85.85 23.716 84.875 22.51 84.275 21.178C83.675 19.819 83.375 18.446 83.375 17.059C83.375 15.617 83.66 14.23 84.23 12.899C84.83 11.539 85.805 10.333 87.155 9.27902C88.535 8.19802 90.275 7.64302 92.375 7.61502H106.954C109.054 7.64302 110.779 8.19802 112.129 9.27902C113.509 10.333 114.484 11.539 115.054 12.899C115.654 14.23 115.954 15.617 115.954 17.059C115.954 18.446 115.654 19.819 115.054 21.179C114.454 22.509 113.479 23.716 112.129 24.798C110.779 25.852 108.784 26.42 106.144 26.504H93.184ZM92.194 13.19C91.624 13.19 91.13 13.412 90.71 13.856C90.2862 14.2778 89.9632 14.7899 89.765 15.354C89.585 15.908 89.495 16.464 89.495 17.018C89.495 17.6 89.585 18.183 89.765 18.765C89.9767 19.3225 90.298 19.8319 90.71 20.263C91.13 20.679 91.625 20.901 92.195 20.929H107.134C107.696 20.9049 108.227 20.6666 108.619 20.263C109.039 19.819 109.339 19.32 109.519 18.765C109.725 18.2055 109.832 17.6142 109.834 17.018C109.834 16.463 109.729 15.908 109.519 15.354C109.349 14.7874 109.039 14.2725 108.619 13.856C108.199 13.412 107.704 13.19 107.134 13.19H92.194ZM125.62 27.085C127.399 27.085 128.841 25.71 128.841 24.015C128.841 22.318 127.399 20.943 125.62 20.943C123.841 20.943 122.398 22.318 122.398 24.014C122.398 25.71 123.841 27.085 125.62 27.085Z" fill="#1B1B1B" fill-opacity="0.25"/>
</g>
</g>
</g>
<defs>
<clipPath id="clip0_31_383">
<rect width="129" height="27" fill="white" transform="translate(0 0.75)"/>
</clipPath>
<clipPath id="clip1_31_383">
<rect width="129" height="27" fill="white" transform="translate(0 0.75)"/>
</clipPath>
</defs>
</svg>
