<svg width="130" height="43" viewBox="0 0 130 43" fill="none" xmlns="http://www.w3.org/2000/svg">
<g clip-path="url(#clip0_31_427)">
<rect width="130" height="42" transform="translate(0 0.25)" fill="white"/>
<mask id="mask0_31_427" style="mask-type:luminance" maskUnits="userSpaceOnUse" x="0" y="1" width="130" height="41">
<path d="M0.172119 1.06299H129.145V41.437H0.172119V1.06299Z" fill="white"/>
</mask>
<g mask="url(#mask0_31_427)">
<path d="M46.3871 32.913L38.0001 20.662L46.3871 9.73396H51.2441L42.7921 20.662L51.2441 32.913H46.3871ZM33.5311 32.913V9.73396H37.6761V32.914H33.5311V32.913ZM56.5561 33.245C55.7321 33.2543 54.9192 33.0548 54.1931 32.665C53.4788 32.2659 52.8901 31.6754 52.4931 30.96C52.0721 30.22 51.8611 29.326 51.8611 28.278C51.8611 27.339 52.0711 26.539 52.4931 25.877C52.9251 25.2033 53.4996 24.6325 54.1761 24.205C54.8805 23.7509 55.6431 23.3943 56.4431 23.145C57.2305 22.8881 58.037 22.6941 58.8551 22.565C59.6551 22.445 60.3551 22.372 60.9601 22.35C60.9171 21.401 60.6801 20.711 60.2481 20.28C59.8161 19.85 59.0821 19.635 58.0461 19.635C57.3274 19.6344 56.6126 19.7406 55.9251 19.95C55.2451 20.148 54.4731 20.463 53.6101 20.893L53.2531 17.549C54.2251 17.063 55.1961 16.699 56.1681 16.456C57.1427 16.2142 58.143 16.0919 59.1471 16.092C60.3561 16.092 61.3971 16.312 62.2721 16.754C63.1461 17.196 63.8201 17.908 64.2961 18.89C64.7701 19.861 65.0071 21.147 65.0071 22.748V27.218C65.0071 28.046 65.0461 28.648 65.1211 29.023C65.1971 29.387 65.3371 29.619 65.5411 29.718C65.7471 29.818 66.0441 29.868 66.4321 29.868H66.9511L66.5941 33.245H65.1371C64.5331 33.245 63.9931 33.162 63.5181 32.996C63.0794 32.8556 62.6724 32.6307 62.3201 32.334C61.9887 32.0515 61.7139 31.7088 61.5101 31.324C60.9821 31.931 60.2641 32.406 59.3571 32.748C58.4609 33.0792 57.5116 33.2475 56.5561 33.245ZM58.2401 30.099C58.5961 30.099 59.0391 30.005 59.5681 29.817C60.1011 29.6157 60.5864 29.3058 60.9931 28.907V25.132C60.2249 25.1668 59.4637 25.2944 58.7261 25.512C57.9701 25.733 57.3391 26.059 56.8321 26.489C56.3241 26.92 56.0711 27.461 56.0711 28.112C56.0711 28.785 56.2431 29.288 56.5891 29.619C56.9341 29.939 57.4841 30.099 58.2391 30.099H58.2401ZM69.1861 32.913V16.357H72.9421L73.1041 19.437L72.1661 18.178C72.7811 17.648 73.5151 17.168 74.3671 16.738C75.2201 16.308 76.2131 16.092 77.3471 16.092C79.4191 16.092 80.9571 16.798 81.9611 18.212C82.9651 19.613 83.4661 21.434 83.4661 23.675V32.913H79.4511V24.006C79.4511 22.461 79.1981 21.318 78.6911 20.579C78.1931 19.839 77.3791 19.469 76.2451 19.469C75.3281 19.469 74.5781 19.701 73.9951 20.165C73.4121 20.618 72.8991 21.225 72.4571 21.986L73.2021 19.966V32.913H69.1861ZM91.6511 33.245C90.5821 33.245 89.6171 33.14 88.7531 32.93C87.8679 32.7087 87.0058 32.404 86.1781 32.02L86.5351 28.51C87.3661 29.006 88.1811 29.409 88.9801 29.718C89.7939 30.0166 90.6543 30.168 91.5211 30.165C92.3211 30.165 92.9301 30.033 93.3511 29.768C93.7711 29.503 93.9821 29.083 93.9821 28.509C93.9821 28.079 93.8691 27.726 93.6421 27.449C93.4261 27.174 93.0971 26.925 92.6551 26.705C92.1157 26.4423 91.5645 26.2047 91.0031 25.993C90.0101 25.618 89.1631 25.209 88.4611 24.768C87.7711 24.326 87.2411 23.796 86.8751 23.178C86.5191 22.549 86.3401 21.776 86.3401 20.86C86.3401 19.911 86.5831 19.072 87.0691 18.344C87.5551 17.615 88.2461 17.047 89.1411 16.638C90.0371 16.23 91.1011 16.026 92.3311 16.026C93.3561 16.026 94.2731 16.142 95.0831 16.374C95.9031 16.605 96.6591 16.92 97.3501 17.317L96.9941 20.827C96.3094 20.3307 95.5772 19.9036 94.8081 19.552C94.0515 19.2049 93.2275 19.0297 92.3951 19.039C91.7051 19.039 91.1711 19.183 90.7931 19.469C90.4151 19.757 90.2261 20.165 90.2261 20.695C90.2261 21.335 90.4911 21.815 91.0191 22.135C91.5491 22.455 92.3951 22.847 93.5611 23.311C94.3171 23.609 94.9701 23.918 95.5211 24.238C96.0811 24.558 96.5461 24.911 96.9131 25.298C97.2801 25.684 97.5501 26.125 97.7231 26.622C97.9061 27.108 97.9981 27.671 97.9981 28.311C97.9981 29.359 97.7491 30.253 97.2531 30.993C96.7671 31.721 96.0491 32.279 95.1001 32.665C94.1601 33.051 93.0111 33.245 91.6511 33.245ZM104.242 33.245C103.418 33.2545 102.605 33.0549 101.879 32.665C101.164 32.266 100.575 31.6755 100.178 30.96C99.7581 30.22 99.5471 29.326 99.5471 28.278C99.5471 27.339 99.7571 26.539 100.178 25.877C100.61 25.2032 101.185 24.6325 101.862 24.205C102.567 23.751 103.329 23.3944 104.129 23.145C104.949 22.88 105.753 22.687 106.541 22.565C107.238 22.4539 107.941 22.3821 108.646 22.35C108.603 21.401 108.365 20.711 107.934 20.28C107.502 19.85 106.768 19.635 105.732 19.635C105.013 19.6344 104.299 19.7406 103.611 19.95C102.931 20.148 102.159 20.463 101.296 20.893L100.939 17.549C101.911 17.063 102.882 16.699 103.854 16.456C104.829 16.2141 105.829 16.0919 106.833 16.092C108.042 16.092 109.083 16.312 109.957 16.754C110.832 17.196 111.506 17.908 111.981 18.89C112.456 19.861 112.693 21.147 112.693 22.748V27.218C112.693 28.046 112.731 28.648 112.807 29.023C112.883 29.387 113.023 29.619 113.228 29.718C113.433 29.818 113.73 29.868 114.118 29.868H114.636L114.28 33.245H112.823C112.219 33.245 111.679 33.162 111.204 32.996C110.765 32.8555 110.358 32.6306 110.006 32.334C109.675 32.0512 109.4 31.7086 109.196 31.324C108.668 31.931 107.95 32.406 107.043 32.748C106.147 33.0793 105.198 33.2476 104.242 33.245ZM105.926 30.099C106.282 30.099 106.725 30.005 107.254 29.817C107.787 29.6158 108.272 29.3059 108.678 28.907V25.132C107.91 25.1669 107.149 25.2945 106.412 25.512C105.656 25.733 105.025 26.059 104.517 26.489C104.01 26.92 103.757 27.461 103.757 28.112C103.757 28.785 103.929 29.288 104.275 29.619C104.62 29.939 105.17 30.099 105.926 30.099ZM121.47 33.245C120.402 33.245 119.436 33.14 118.572 32.93C117.687 32.709 116.825 32.4043 115.998 32.02L116.354 28.51C117.185 29.006 118 29.409 118.799 29.718C119.613 30.0168 120.474 30.1682 121.341 30.165C122.14 30.165 122.749 30.033 123.17 29.768C123.591 29.503 123.802 29.083 123.802 28.509C123.802 28.079 123.688 27.726 123.462 27.449C123.246 27.174 122.917 26.925 122.474 26.705C121.935 26.4422 121.384 26.2046 120.823 25.993C119.83 25.618 118.982 25.209 118.281 24.768C117.59 24.326 117.061 23.796 116.694 23.178C116.338 22.549 116.16 21.776 116.16 20.86C116.16 19.911 116.403 19.072 116.889 18.344C117.374 17.615 118.065 17.047 118.961 16.638C119.857 16.23 120.92 16.026 122.15 16.026C123.176 16.026 124.093 16.142 124.903 16.374C125.723 16.605 126.479 16.92 127.169 17.317L126.813 20.827C126.129 20.3306 125.396 19.9035 124.627 19.552C123.871 19.2049 123.047 19.0297 122.215 19.039C121.524 19.039 120.99 19.183 120.612 19.469C120.234 19.757 120.045 20.165 120.045 20.695C120.045 21.335 120.31 21.815 120.839 22.135C121.368 22.455 122.215 22.847 123.381 23.311C124.137 23.609 124.789 23.918 125.34 24.238C125.901 24.558 126.365 24.911 126.732 25.298C127.099 25.684 127.369 26.125 127.542 26.622C127.725 27.108 127.817 27.671 127.817 28.311C127.817 29.359 127.569 30.253 127.072 30.993C126.587 31.721 125.869 32.279 124.919 32.665C123.98 33.051 122.83 33.245 121.47 33.245ZM19.1591 27.527V8.01996L26.0391 14.968V34.473H6.96512L0.172119 27.527H19.1591Z" fill="#1B1B1B" fill-opacity="0.25"/>
<path d="M9.75212 8.02096H0.172119V17.819H9.75212V8.02096Z" fill="#1B1B1B" fill-opacity="0.25"/>
</g>
</g>
<defs>
<clipPath id="clip0_31_427">
<rect width="130" height="42" fill="white" transform="translate(0 0.25)"/>
</clipPath>
</defs>
</svg>
