<svg width="134" height="29" viewBox="0 0 134 29" fill="none" xmlns="http://www.w3.org/2000/svg">
<g clip-path="url(#clip0_31_451)">
<rect width="134" height="28" transform="translate(0 0.25)" fill="white"/>
<g clip-path="url(#clip1_31_451)">
<mask id="mask0_31_451" style="mask-type:luminance" maskUnits="userSpaceOnUse" x="0" y="0" width="134" height="28">
<path d="M0.0310059 0.791016H133.491V27.707H0.0310059V0.791016Z" fill="white"/>
</mask>
<g mask="url(#mask0_31_451)">
<path d="M39.02 8.96902C39.02 12.24 41.172 14.587 45.245 15.76L49.357 16.934C51.471 17.538 52.277 18.391 52.277 20.027C52.277 22.303 50.203 23.76 46.975 23.76C43.823 23.76 41.902 22.41 41.672 20.098H36.906C37.214 24.898 40.903 27.708 46.821 27.708C52.893 27.708 56.928 24.472 56.928 19.636C56.928 16.329 55.045 14.231 51.048 13.058L46.975 11.885C44.707 11.209 43.708 10.142 43.708 8.40002C43.708 6.08902 45.591 4.70202 48.666 4.70202C51.509 4.70202 53.354 6.08902 53.623 8.40002H58.35C58.12 3.95602 54.16 0.791016 48.858 0.791016C42.978 0.791016 39.02 4.02702 39.02 8.96902ZM68.194 27.67C72.498 27.67 76.264 25.253 77.571 21.59H73.113C72.306 23.262 70.577 24.222 68.424 24.222C65.504 24.222 63.928 22.55 63.928 19.564V19.457L77.878 19.422L78.108 18.106C78.993 12.808 75.803 9.21601 70.192 9.21601C64.198 9.21601 59.586 13.804 59.586 19.813C59.586 24.683 62.891 27.67 68.194 27.67ZM69.924 12.63C72.69 12.63 74.266 14.266 73.844 16.755H64.428C65.312 14.301 67.426 12.63 69.923 12.63H69.924ZM80.484 19.706C80.484 24.471 84.135 27.671 89.554 27.671C95.779 27.671 100.698 23.048 100.698 17.181C100.698 12.417 97.048 9.21702 91.629 9.21702C85.442 9.21702 80.484 13.839 80.484 19.706ZM85.096 19.386C85.096 15.759 87.94 12.879 91.398 12.879C94.281 12.879 96.087 14.693 96.087 17.502C96.087 21.092 93.281 23.972 89.823 23.972C86.902 23.972 85.096 22.159 85.096 19.386ZM117.88 9.68002L116.304 19.102C115.766 22.195 113.922 23.938 111.193 23.938C108.734 23.938 107.427 22.231 107.927 19.387L109.618 9.68002H105.121L103.277 20.382C102.547 24.507 105.198 27.707 109.387 27.707C111.924 27.707 113.614 26.817 115.267 24.862L115.228 27.245H119.417L122.414 9.68002H117.88ZM128.848 27.245L133.382 0.791016H128.848L124.352 27.245H128.848ZM20.438 3.72302L14.418 0.791016L0.293006 13.752L0.0310059 13.989L12.643 20.339L17.611 15.54L11.209 12.54L20.438 3.72302Z" fill="#1B1B1B" fill-opacity="0.25"/>
<path d="M10.6951 23.912L16.7151 26.844L30.8491 13.875L31.1031 13.645L18.5301 7.40204L13.5621 12.2L19.8941 15.125L10.6951 23.912Z" fill="#1B1B1B" fill-opacity="0.25"/>
</g>
</g>
</g>
<defs>
<clipPath id="clip0_31_451">
<rect width="134" height="28" fill="white" transform="translate(0 0.25)"/>
</clipPath>
<clipPath id="clip1_31_451">
<rect width="134" height="28" fill="white" transform="translate(0 0.25)"/>
</clipPath>
</defs>
</svg>
