<svg width="155" height="35" viewBox="0 0 155 35" fill="none" xmlns="http://www.w3.org/2000/svg">
<g clip-path="url(#clip0_31_473)">
<rect width="155" height="34" transform="translate(0 0.25)" fill="white"/>
<g clip-path="url(#clip1_31_473)">
<mask id="mask0_31_473" style="mask-type:luminance" maskUnits="userSpaceOnUse" x="0" y="0" width="155" height="35">
<path d="M0.977051 0.427979H154.624V34.073H0.977051V0.427979Z" fill="white"/>
</mask>
<g mask="url(#mask0_31_473)">
<path d="M1.04712 22.9449L11.9601 17.9449L18.2421 21.6949L19.5121 33.9959L11.7701 33.931L12.9121 25.3789L11.5801 24.5889L5.04412 29.8519L1.04712 22.9449ZM18.9301 21.1639L28.5741 28.4659L32.3811 21.4269L24.6411 18.2039V16.6249L32.3811 13.3359L28.5741 6.36295L18.9301 13.6649V21.1649V21.1639ZM18.2421 13.0749L19.5121 0.772949L11.7701 0.904949L12.9121 9.45695L11.5801 10.2469L4.98012 4.98395L1.04712 11.8239L11.9601 16.8239L18.2421 13.0749ZM58.2061 15.9089V27.4329H62.3721V12.7459H56.3051V15.9079H58.2051L58.2061 15.9089ZM58.0861 10.6839C58.4681 11.0939 59.0491 11.2999 59.8301 11.2999C60.6121 11.2999 61.1841 11.0949 61.5491 10.6839C61.9311 10.2539 62.1221 9.71895 62.1221 9.07595C62.1221 8.41395 61.9311 7.87795 61.5491 7.46695C61.1841 7.03895 60.6121 6.82395 59.8301 6.82395C59.0501 6.82395 58.4681 7.03895 58.0861 7.46795C57.7211 7.87795 57.5391 8.41395 57.5391 9.07595C57.5391 9.71895 57.7211 10.2549 58.0861 10.6839ZM43.7101 27.1119C44.8911 27.6659 46.3401 27.9429 48.0591 27.9429C49.6741 27.9429 51.0621 27.6829 52.2251 27.1659C53.3881 26.6479 54.2821 25.924 54.9071 24.9949C55.5501 24.0479 55.8711 22.9489 55.8711 21.6979C55.8711 20.4829 55.5681 19.4559 54.9601 18.6159C54.3701 17.7589 53.5451 17.089 52.4861 16.606C51.4261 16.106 50.2031 15.7929 48.8141 15.6679L47.3561 15.5339C46.4881 15.4629 45.8631 15.221 45.4811 14.8099C45.108 14.4213 44.9022 13.9017 44.9081 13.3629C44.9044 12.9489 45.0126 12.5416 45.2211 12.1839C45.4291 11.8089 45.7411 11.5139 46.1581 11.2999C46.5921 11.0849 47.1221 10.9779 47.7471 10.9779C48.4061 10.9779 48.9531 11.1029 49.3871 11.3529C49.4831 11.4059 49.5731 11.4629 49.6581 11.5229L49.6791 11.5369L49.7731 11.6069C50.0371 11.8149 50.2461 12.0609 50.4031 12.3449C50.6281 12.7379 50.7421 13.1749 50.7421 13.6579H54.9071C54.9071 12.3709 54.6211 11.2549 54.0481 10.3079C53.4751 9.34295 52.6511 8.60195 51.5751 8.08295C50.5151 7.54695 49.2401 7.27895 47.7471 7.27895C46.3231 7.27895 45.0911 7.52895 44.0491 8.02895C43.0081 8.51195 42.1921 9.20895 41.6021 10.1199C41.0281 11.0319 40.7421 12.1129 40.7421 13.3629C40.7421 15.0959 41.3071 16.4899 42.4351 17.5439C43.5631 18.5979 45.0741 19.2059 46.9651 19.3669L48.3981 19.5009C49.5601 19.6079 50.4031 19.8489 50.9231 20.2239C51.4441 20.5819 51.7051 21.0729 51.7051 21.6979C51.7125 22.1775 51.5668 22.6469 51.2891 23.0379C51.0101 23.4129 50.6021 23.7079 50.0641 23.9229C49.5261 24.1369 48.8581 24.2439 48.0591 24.2439C47.1741 24.2439 46.4531 24.1189 45.8981 23.8689C45.3421 23.6009 44.9261 23.2529 44.6481 22.8239C44.3908 22.4047 44.2557 21.9219 44.2581 21.4299H40.1181C40.1181 22.6989 40.4211 23.8249 41.0281 24.8069C41.6361 25.7719 42.5291 26.5409 43.7101 27.1119ZM71.6791 27.6199C70.2381 27.6199 69.0751 27.4419 68.1891 27.0839C67.3302 26.7334 66.6337 26.0737 66.2371 25.2349C65.8371 24.3589 65.6371 23.1799 65.6371 21.6969V15.8809H63.4771V12.7459H65.6371V8.77895H69.5171V12.7459H73.6841V15.8809H69.5181V21.8579C69.5181 22.5549 69.6911 23.0909 70.0381 23.4659C70.4031 23.8239 70.9151 24.0019 71.5751 24.0019H73.6851V27.6199H71.6791Z" fill="#1B1B1B" fill-opacity="0.25"/>
<path fill-rule="evenodd" clip-rule="evenodd" d="M78.6921 27.3C79.6301 27.73 80.7061 27.944 81.9221 27.944C83.1191 27.944 84.1781 27.729 85.0981 27.301C85.991 26.8931 86.7749 26.2799 87.3858 25.5114C87.9966 24.7429 88.4172 23.8409 88.6131 22.879H84.7851C84.6121 23.325 84.2821 23.7 83.7961 24.004C83.3101 24.307 82.6851 24.46 81.9211 24.46C81.4481 24.46 81.0251 24.402 80.6531 24.287C80.3818 24.2054 80.1245 24.083 79.8901 23.924C79.3701 23.567 78.9871 23.066 78.7441 22.423C78.6755 22.2348 78.6178 22.0428 78.5711 21.848C78.5202 21.6399 78.4802 21.4292 78.4511 21.217H88.8741V19.769C88.8741 18.429 88.5961 17.197 88.0411 16.071C87.5018 14.9465 86.664 13.9918 85.6191 13.311C84.5771 12.596 83.2931 12.238 81.7651 12.238C80.6021 12.238 79.5601 12.453 78.6401 12.882C77.7691 13.2695 76.9954 13.8461 76.3751 14.57C75.7634 15.2919 75.2868 16.1181 74.9681 17.009C74.654 17.9137 74.4958 18.8653 74.5001 19.823V20.359C74.5001 21.306 74.6561 22.235 74.9681 23.146C75.2981 24.04 75.7681 24.852 76.3751 25.586C77.0182 26.3143 77.8077 26.8987 78.6921 27.301V27.3ZM78.5221 18.567C78.5799 18.2821 78.6633 18.003 78.7711 17.733C79.0311 17.071 79.4131 16.571 79.9161 16.232C80.1062 16.1039 80.3115 15.9998 80.5271 15.922C80.925 15.7838 81.3439 15.7161 81.7651 15.722C82.4771 15.722 83.0671 15.892 83.5351 16.232C84.0221 16.553 84.3861 17.027 84.6291 17.652C84.6818 17.7859 84.7275 17.9224 84.7661 18.061C84.8319 18.2965 84.8823 18.536 84.9171 18.778H78.4831C78.4951 18.706 78.5071 18.636 78.5221 18.567Z" fill="#1B1B1B" fill-opacity="0.25"/>
<path d="M90.594 27.436V12.748H93.9V16.448C93.9743 16.065 94.0786 15.6885 94.212 15.322C94.577 14.321 95.124 13.57 95.852 13.07C96.582 12.552 97.476 12.293 98.535 12.293H98.717C99.793 12.293 100.687 12.552 101.399 13.07C102.128 13.57 102.675 14.32 103.04 15.321L103.068 15.397L103.093 15.466C103.109 15.4173 103.126 15.3689 103.144 15.321C103.526 14.321 104.081 13.571 104.81 13.07C105.539 12.552 106.434 12.293 107.493 12.293H107.675C108.751 12.293 109.654 12.552 110.383 13.07C111.129 13.57 111.694 14.32 112.075 15.321C112.457 16.322 112.648 17.573 112.648 19.074V27.436H108.482V18.832C108.482 18.028 108.274 17.376 107.857 16.876C107.458 16.376 106.885 16.126 106.139 16.126C105.392 16.126 104.802 16.385 104.368 16.903C103.934 17.403 103.717 18.073 103.717 18.913V27.436H99.524V18.832C99.524 18.028 99.316 17.376 98.899 16.876C98.5 16.376 97.936 16.126 97.207 16.126C96.443 16.126 95.844 16.385 95.41 16.903C94.976 17.403 94.759 18.073 94.759 18.913V27.436H90.594Z" fill="#1B1B1B" fill-opacity="0.25"/>
<path fill-rule="evenodd" clip-rule="evenodd" d="M123.775 24.604V27.434H127.082V18.43C127.082 17.072 126.822 15.964 126.301 15.107C125.78 14.231 125.016 13.579 124.009 13.15C123.02 12.721 121.796 12.507 120.338 12.507C119.8 12.5069 119.261 12.5159 118.723 12.534C118.15 12.552 117.595 12.578 117.057 12.614L116.646 12.643C116.314 12.6663 115.982 12.6923 115.651 12.721V16.339C116.432 16.2876 117.214 16.2426 117.996 16.204C118.958 16.1576 119.922 16.1313 120.885 16.125C121.649 16.125 122.204 16.313 122.551 16.688C122.898 17.063 123.072 17.626 123.072 18.376V18.43H120.494C119.227 18.43 118.107 18.6 117.135 18.94C116.163 19.26 115.407 19.77 114.87 20.467C114.331 21.146 114.062 22.021 114.062 23.093C114.062 24.076 114.279 24.925 114.713 25.64C115.147 26.3359 115.77 26.8935 116.51 27.247C117.291 27.623 118.194 27.81 119.218 27.81C120.208 27.81 121.041 27.623 121.718 27.247C122.402 26.8816 122.964 26.3226 123.332 25.64C123.4 25.522 123.462 25.4 123.521 25.274C123.605 25.0899 123.679 24.9013 123.742 24.709L123.775 24.604ZM123.072 21.994V20.814H120.468C119.739 20.814 119.175 21.002 118.776 21.377C118.394 21.734 118.202 22.226 118.202 22.851C118.202 23.145 118.25 23.413 118.345 23.654C118.441 23.896 118.584 24.11 118.776 24.298C119.175 24.656 119.739 24.834 120.468 24.834C120.707 24.8373 120.945 24.8138 121.178 24.764C121.369 24.725 121.55 24.668 121.718 24.594C122.1 24.414 122.412 24.12 122.655 23.709C122.898 23.298 123.037 22.726 123.072 21.994Z" fill="#1B1B1B" fill-opacity="0.25"/>
<path d="M129.578 27.4349V12.7479H132.885V17.5959C133.044 16.2119 133.443 15.0959 134.083 14.2489C134.951 13.1229 136.201 12.5599 137.833 12.5599H138.38V16.2589H137.338C136.192 16.2589 135.307 16.5809 134.682 17.2239C134.057 17.8489 133.744 18.7609 133.744 19.9569V27.4349H129.578ZM143.666 20.5729H145.046L149.551 27.4339H154.238L148.526 19.0079L153.223 12.7469H148.848L143.666 19.7299V7.86993H139.5V27.4339H143.666V20.5729Z" fill="#1B1B1B" fill-opacity="0.25"/>
</g>
</g>
</g>
<defs>
<clipPath id="clip0_31_473">
<rect width="155" height="34" fill="white" transform="translate(0 0.25)"/>
</clipPath>
<clipPath id="clip1_31_473">
<rect width="155" height="34" fill="white" transform="translate(0 0.25)"/>
</clipPath>
</defs>
</svg>
