<svg width="120" height="36" viewBox="0 0 120 36" fill="none" xmlns="http://www.w3.org/2000/svg">
<g clip-path="url(#clip0_31_439)">
<rect width="120" height="35" transform="translate(0 0.75)" fill="white"/>
<g clip-path="url(#clip1_31_439)">
<mask id="mask0_31_439" style="mask-type:luminance" maskUnits="userSpaceOnUse" x="0" y="0" width="120" height="36">
<path d="M0.147949 0.804993H119.028V35.572H0.147949V0.804993Z" fill="white"/>
</mask>
<g mask="url(#mask0_31_439)">
<path d="M18.0059 2.05C18.1399 0.950997 16.7649 0.355998 16.0659 1.212L0.399886 20.362C-0.190114 21.083 0.319886 22.172 1.24989 22.172H15.2699C15.9299 22.172 16.4419 22.753 16.3599 23.413L15.0219 34.326C14.8869 35.425 16.2619 36.02 16.9619 35.165L32.6259 16.015C33.2159 15.293 32.7059 14.205 31.7769 14.205H17.7569C17.0969 14.205 16.5849 13.623 16.6659 12.963L18.0049 2.05H18.0059Z" fill="#1B1B1B" fill-opacity="0.25"/>
<path fill-rule="evenodd" clip-rule="evenodd" d="M38.8279 29.136L40.1209 24.682H47.8059L49.1189 29.136H53.0879L46.8499 7.758H41.0949L34.8599 29.136H38.8299H38.8279ZM46.6949 20.911H41.2149L43.9339 11.541L46.6949 20.911ZM62.8519 28.587C61.8649 29.27 60.6199 29.611 59.1179 29.611C57.9179 29.611 56.9389 29.398 56.1829 28.973C55.4269 28.547 54.8389 28.008 54.4189 27.355C54.0098 26.7278 53.7058 26.0381 53.5189 25.313C53.3512 24.6786 53.2418 24.0303 53.1919 23.376C53.1609 22.951 53.1423 22.5251 53.1359 22.099V13.102H57.0479V20.674C57.0479 21.04 57.0669 21.508 57.1039 22.077C57.1419 22.646 57.2609 23.217 57.4589 23.791C57.6569 24.366 57.9809 24.846 58.4289 25.231C58.8789 25.618 59.5139 25.811 60.3359 25.811C60.6669 25.811 61.0209 25.756 61.3989 25.647C61.7988 25.5257 62.1634 25.3095 62.4619 25.017C62.7929 24.705 63.0649 24.244 63.2779 23.636C63.4899 23.027 63.5969 22.228 63.5969 21.238V13.102H67.4799V29.136H64.0779V27.485L64.0609 27.505C63.7109 27.911 63.3079 28.272 62.8519 28.587ZM73.2779 29.137V20.94C73.2779 20.327 73.3579 19.775 73.5179 19.285C73.667 18.8163 73.9084 18.3821 74.2279 18.008C74.5464 17.6421 74.9373 17.3462 75.3759 17.139C75.8522 16.9053 76.3695 16.7668 76.8989 16.731C77.4619 16.687 77.9549 16.734 78.3799 16.872V13.102C77.9197 13.0424 77.4546 13.0297 76.9919 13.064C76.5348 13.0977 76.083 13.1826 75.6449 13.317C75.2195 13.446 74.814 13.6331 74.4399 13.873C73.9631 14.1653 73.5488 14.549 73.2209 15.002C73.0709 15.209 72.9339 15.426 72.8109 15.653L72.7959 15.683V13.101H69.3939V29.135H73.2779V29.137ZM90.1999 28.505C89.0329 29.223 87.6839 29.581 86.1539 29.581C84.6129 29.581 83.2619 29.221 82.0999 28.498C80.9369 27.775 80.0329 26.778 79.3849 25.506C78.7379 24.235 78.4149 22.772 78.4149 21.119C78.4149 19.447 78.7449 17.974 79.4059 16.703C80.0679 15.431 80.9799 14.439 82.1419 13.726C83.3039 13.013 84.6419 12.657 86.1539 12.657C87.6939 12.657 89.0469 13.018 90.2139 13.741C91.3819 14.463 92.2909 15.461 92.9439 16.732C93.5949 18.004 93.9209 19.466 93.9209 21.119C93.9209 22.782 93.5929 24.249 92.9359 25.521C92.2789 26.793 91.3669 27.788 90.1999 28.505ZM86.1529 25.811C84.9529 25.811 84.0429 25.387 83.4249 24.541C82.8049 23.695 82.4959 22.554 82.4959 21.119C82.4959 20.189 82.6259 19.372 82.8859 18.669C83.1459 17.967 83.5459 17.418 84.0839 17.022C84.6229 16.626 85.3119 16.428 86.1539 16.428C87.3729 16.428 88.2909 16.853 88.9099 17.705C89.5299 18.555 89.8389 19.695 89.8389 21.119C89.8389 22.495 89.5339 23.621 88.9249 24.497C88.3149 25.373 87.3909 25.811 86.1529 25.811ZM99.0499 20.941V29.136H95.1659V13.102H98.5679V15.683L98.5829 15.654C98.7059 15.427 98.8429 15.21 98.9929 15.003C99.3229 14.547 99.7299 14.171 100.212 13.874C100.581 13.637 100.982 13.451 101.417 13.318C101.855 13.1835 102.307 13.0987 102.764 13.065C103.227 13.0303 103.692 13.0427 104.153 13.102V16.873C103.728 16.735 103.234 16.688 102.671 16.733C102.109 16.777 101.601 16.913 101.147 17.14C100.708 17.3468 100.317 17.6427 99.9989 18.009C99.6801 18.3832 99.4393 18.8174 99.2909 19.286C99.1237 19.8215 99.0423 20.3801 99.0499 20.941ZM110.578 29.581C111.901 29.581 112.995 29.341 113.859 28.861C114.507 28.501 115.123 27.973 115.705 27.276L115.794 27.168V29.136H119.167V19.338C119.167 18.605 119.139 17.942 119.082 17.348C119.017 16.7256 118.834 16.1212 118.544 15.567C118.005 14.497 117.211 13.746 116.162 13.31C115.113 12.875 113.913 12.657 112.562 12.657C110.72 12.657 109.264 13.073 108.196 13.904C107.128 14.736 106.401 15.814 106.013 17.14L109.5 18.299C109.746 17.566 110.176 17.056 110.79 16.769C111.405 16.482 111.995 16.339 112.562 16.339C113.583 16.339 114.31 16.562 114.745 17.007C115.079 17.349 115.285 17.841 115.362 18.483L115.367 18.522L115.201 18.548C114.694 18.628 114.208 18.703 113.742 18.775L113.512 18.811C112.52 18.964 111.631 19.125 110.847 19.293C110.063 19.462 109.387 19.654 108.82 19.873C107.998 20.189 107.343 20.583 106.857 21.053C106.382 21.5042 106.02 22.0609 105.801 22.678C105.577 23.3323 105.466 24.0203 105.475 24.712C105.475 25.602 105.671 26.417 106.063 27.154C106.455 27.892 107.032 28.48 107.792 28.921C108.553 29.361 109.481 29.581 110.578 29.581ZM110.252 26.197C110.573 26.335 110.956 26.404 111.4 26.404C112.109 26.404 112.706 26.274 113.193 26.011C113.68 25.749 114.067 25.449 114.355 25.113C114.644 24.776 114.839 24.494 114.943 24.267C115.142 23.831 115.258 23.324 115.291 22.745L115.298 22.602C115.314 22.321 115.325 22.063 115.332 21.83V21.794L115.207 21.816C114.625 21.92 114.121 22.012 113.696 22.092C113.121 22.1968 112.549 22.3179 111.981 22.455C111.591 22.5501 111.208 22.6693 110.833 22.812C110.506 22.941 110.199 23.1132 109.918 23.324C109.706 23.4845 109.532 23.6897 109.408 23.925C109.3 24.143 109.245 24.385 109.245 24.653C109.245 25.019 109.332 25.333 109.508 25.595C109.682 25.858 109.93 26.058 110.252 26.197Z" fill="#1B1B1B" fill-opacity="0.25"/>
</g>
</g>
</g>
<defs>
<clipPath id="clip0_31_439">
<rect width="120" height="35" fill="white" transform="translate(0 0.75)"/>
</clipPath>
<clipPath id="clip1_31_439">
<rect width="120" height="35" fill="white" transform="translate(0 0.75)"/>
</clipPath>
</defs>
</svg>
