<svg width="108" height="33" viewBox="0 0 108 33" fill="none" xmlns="http://www.w3.org/2000/svg">
<g clip-path="url(#clip0_31_411)">
<rect width="108" height="32" transform="translate(0 0.25)" fill="white"/>
<path d="M63.492 28.248C63.492 28.57 63.784 28.827 64.134 28.812L69.314 28.583C69.64 28.569 69.897 28.321 69.897 28.02V12.941C69.897 12.621 69.607 12.365 69.26 12.377L64.08 12.568C63.751 12.58 63.492 12.829 63.492 13.132V28.248ZM64.288 9.55202C64.922 10.137 65.715 10.429 66.667 10.429C67.667 10.429 68.472 10.137 69.082 9.55202C69.717 8.94502 70.034 8.19202 70.034 7.29402C70.0412 6.87684 69.9601 6.46286 69.796 6.07924C69.6319 5.69561 69.3886 5.351 69.082 5.06802C68.472 4.46202 67.667 4.15802 66.667 4.15802C65.715 4.15802 64.922 4.46202 64.287 5.06802C63.9806 5.35109 63.7375 5.69574 63.5736 6.07936C63.4097 6.46299 63.3287 6.87692 63.336 7.29402C63.336 8.19302 63.653 8.94502 64.288 9.55202Z" fill="#1B1B1B" fill-opacity="0.25"/>
<path fill-rule="evenodd" clip-rule="evenodd" d="M48.075 19.16V27.357C48.075 27.628 47.865 27.861 47.575 27.911L42.248 28.828C41.872 28.893 41.5229 28.627 41.5229 28.274V5.49802C41.5229 5.18602 41.798 4.93402 42.136 4.93402H52.577C54.334 4.93402 55.8709 5.23702 57.1889 5.84402C58.5309 6.45102 59.5789 7.28202 60.3359 8.33902C61.0919 9.39502 61.471 10.631 61.471 12.047C61.471 13.463 61.0809 14.71 60.2999 15.789C59.5429 16.846 58.482 17.677 57.115 18.284C56.525 18.537 55.89 18.735 55.212 18.878L62.16 27.59C62.4979 28.014 62.077 28.596 61.5219 28.472L55.7789 27.189C55.6511 27.1611 55.5352 27.0936 55.448 26.996L48.5439 19.161L48.075 19.16ZM48.075 14.845H51.6619C52.7359 14.845 53.5519 14.609 54.1139 14.137C54.6999 13.643 54.993 12.98 54.993 12.148C54.993 11.339 54.6999 10.688 54.1139 10.193C53.5529 9.67602 52.7359 9.41702 51.6619 9.41702H48.075V14.845Z" fill="#1B1B1B" fill-opacity="0.25"/>
<path d="M78.5739 29.31C77.4757 29.3098 76.3818 29.1738 75.3169 28.905C74.2669 28.635 73.2789 28.275 72.3519 27.825C71.6832 27.4815 71.0532 27.0671 70.4729 26.589C70.2279 26.384 70.2309 26.034 70.4629 25.816L73.0819 23.353C73.3229 23.126 73.72 23.13 73.983 23.336C74.463 23.711 75.0059 24.016 75.6099 24.252C76.4399 24.567 77.317 24.724 78.245 24.724C78.782 24.724 79.185 24.657 79.453 24.522C79.746 24.387 79.8919 24.196 79.8919 23.949C79.8919 23.589 79.6849 23.319 79.2699 23.139C78.8799 22.937 78.3549 22.769 77.6959 22.634C77.0218 22.4659 76.3507 22.2859 75.6829 22.094C74.9731 21.8685 74.2866 21.5751 73.633 21.218C72.9749 20.8591 72.4204 20.3366 72.023 19.701C71.633 19.049 71.4369 18.218 71.4369 17.206C71.4369 16.15 71.7419 15.228 72.3519 14.442C72.9869 13.632 73.8649 13.003 74.9869 12.554C76.1099 12.082 77.427 11.846 78.94 11.846C80.478 11.846 81.9409 12.093 83.3319 12.587C84.5149 12.989 85.7029 13.767 86.5579 14.585C86.7959 14.813 86.7499 15.178 86.4759 15.371L83.4469 17.518C83.1919 17.698 82.834 17.662 82.5949 17.464C82.1789 17.119 81.786 16.939 81.246 16.768C80.539 16.521 79.8919 16.397 79.3059 16.397C78.7459 16.397 78.3429 16.476 78.0989 16.633C77.8549 16.768 77.733 16.959 77.733 17.206C77.733 17.498 77.9279 17.734 78.3179 17.914C78.7329 18.094 79.2579 18.262 79.8919 18.42C80.5509 18.555 81.2219 18.734 81.9049 18.96C82.6142 19.1853 83.2909 19.5023 83.9179 19.903C84.5675 20.2757 85.1097 20.81 85.4919 21.454C85.9069 22.106 86.1139 22.949 86.1139 23.983C86.1139 25.623 85.431 26.927 84.064 27.893C82.698 28.837 80.8679 29.31 78.5739 29.31Z" fill="#1B1B1B" fill-opacity="0.25"/>
<path fill-rule="evenodd" clip-rule="evenodd" d="M90.9019 28.13C92.4389 28.849 94.2079 29.209 96.2089 29.209C97.7949 29.209 99.2099 28.972 100.454 28.5C101.499 28.1217 102.459 27.5428 103.282 26.796C103.511 26.586 103.498 26.246 103.27 26.036L100.806 23.767C100.556 23.537 100.149 23.552 99.8879 23.771C99.4769 24.116 99.0129 24.3925 98.5139 24.59C97.8559 24.86 97.0869 24.994 96.2089 24.994C95.2809 24.994 94.5009 24.826 93.8669 24.489C93.2373 24.1572 92.7256 23.6389 92.4019 23.005C92.3171 22.8368 92.2436 22.6631 92.1819 22.485L104.261 22.435C104.541 22.433 104.787 22.257 104.842 22.005C104.898 21.757 104.936 21.5054 104.956 21.252C105.004 20.9057 105.028 20.5566 105.029 20.207C105.029 18.611 104.627 17.195 103.822 15.959C103.041 14.701 101.943 13.723 100.528 13.026C99.1369 12.306 97.5379 11.947 95.7329 11.947C93.8779 11.947 92.2069 12.329 90.7189 13.094C89.2549 13.835 88.0959 14.858 87.2419 16.162C86.3879 17.442 85.9609 18.915 85.9609 20.578C85.9609 22.264 86.3999 23.758 87.2779 25.062C88.1569 26.365 89.3649 27.388 90.9019 28.13ZM92.1689 18.7C92.2259 18.531 92.2909 18.37 92.3659 18.218C92.6604 17.5916 93.1309 17.0645 93.7199 16.701C94.3059 16.341 94.9999 16.161 95.8059 16.161C96.5859 16.161 97.2339 16.319 97.7459 16.633C98.2579 16.948 98.6489 17.409 98.9169 18.016C99.0049 18.208 99.0799 18.418 99.1419 18.646L92.1689 18.699V18.7Z" fill="#1B1B1B" fill-opacity="0.25"/>
<path d="M97.48 9.60497V5.25398H98.68V9.60398L97.48 9.60497ZM96.023 6.17498V5.22298H100.137V6.17498H96.023ZM100.347 9.60497V5.22298H101.213L103.038 7.76298H102.629L104.448 5.22298H105.313V9.60497H104.126V7.05198L104.313 7.10198L103.22 8.61598H102.441L101.354 7.10198L101.542 7.05198V9.60497H100.347ZM10.242 2.92498C10.242 2.58997 10.512 2.30798 10.873 2.26598L15.194 1.76898C15.624 1.71898 16.004 2.02898 16.004 2.42698V15.518C16.004 15.918 15.624 16.226 15.194 16.177L10.873 15.679C10.513 15.637 10.243 15.355 10.243 15.021V2.92498H10.242ZM1.61001 4.58298C1.61001 4.24798 1.88001 3.96597 2.24001 3.92497L6.56101 3.42698C6.99101 3.37698 7.37101 3.68698 7.37101 4.08498V14.523C7.37101 14.923 6.99101 15.231 6.56101 15.181L2.24101 14.684C1.88001 14.642 1.60901 14.36 1.60901 14.025V4.58298H1.61001ZM24.099 2.87698C24.419 2.94998 24.644 3.21598 24.644 3.51998V9.04998C24.644 9.38498 24.374 9.66698 24.014 9.70798L19.692 10.206C19.262 10.256 18.882 9.94598 18.882 9.54798V2.52498C18.882 2.09298 19.323 1.77698 19.778 1.88098L24.098 2.87698H24.099ZM32.566 5.17797C32.566 4.87398 32.341 4.60797 32.021 4.53497L27.7 3.53998C27.245 3.43498 26.805 3.75198 26.805 4.18298V9.21597C26.805 9.61497 27.185 9.92397 27.615 9.87397L31.935 9.37698C32.295 9.33498 32.566 9.05298 32.566 8.71798V5.17797Z" fill="#1B1B1B" fill-opacity="0.25"/>
<path d="M32.577 11.957L18.533 12.289C18.737 14.722 20.939 16.601 23.588 16.601H26.815V19.424L1.60999 17.264V31.094L32.578 29.104L32.577 11.957Z" fill="#1B1B1B" fill-opacity="0.25"/>
</g>
<defs>
<clipPath id="clip0_31_411">
<rect width="108" height="32" fill="white" transform="translate(0 0.25)"/>
</clipPath>
</defs>
</svg>
