<svg width="155" height="35" viewBox="0 0 155 35" fill="none" xmlns="http://www.w3.org/2000/svg">
<g clip-path="url(#clip0_31_393)">
<rect width="155" height="34" transform="translate(0 0.25)" fill="white"/>
<g clip-path="url(#clip1_31_393)">
<mask id="mask0_31_393" style="mask-type:luminance" maskUnits="userSpaceOnUse" x="0" y="0" width="155" height="35">
<path d="M0.977051 0.427979H154.624V34.073H0.977051V0.427979Z" fill="white"/>
</mask>
<g mask="url(#mask0_31_393)">
<path d="M1.047 22.9449L11.96 17.9449L18.242 21.6949L19.512 33.9959L11.77 33.931L12.912 25.3789L11.58 24.5889L5.044 29.8519L1.047 22.9449ZM18.93 21.1639L28.574 28.4659L32.381 21.4269L24.641 18.2039V16.6249L32.381 13.3359L28.574 6.36295L18.93 13.6649V21.1649V21.1639ZM18.242 13.0749L19.512 0.772949L11.77 0.904949L12.912 9.45695L11.58 10.2469L4.98 4.98395L1.047 11.8239L11.96 16.8239L18.242 13.0749ZM58.206 15.9089V27.4329H62.372V12.7459H56.305V15.9079H58.205L58.206 15.9089ZM58.086 10.6839C58.468 11.0939 59.049 11.2999 59.83 11.2999C60.612 11.2999 61.184 11.0949 61.549 10.6839C61.931 10.2539 62.122 9.71895 62.122 9.07595C62.122 8.41395 61.931 7.87795 61.549 7.46695C61.184 7.03895 60.612 6.82395 59.83 6.82395C59.05 6.82395 58.468 7.03895 58.086 7.46795C57.721 7.87795 57.539 8.41395 57.539 9.07595C57.539 9.71895 57.721 10.2549 58.086 10.6839ZM43.71 27.1119C44.891 27.6659 46.34 27.9429 48.059 27.9429C49.674 27.9429 51.062 27.6829 52.225 27.1659C53.388 26.6479 54.282 25.924 54.907 24.9949C55.55 24.0479 55.871 22.9489 55.871 21.6979C55.871 20.4829 55.568 19.4559 54.96 18.6159C54.37 17.7589 53.545 17.089 52.486 16.606C51.426 16.106 50.203 15.7929 48.814 15.6679L47.356 15.5339C46.488 15.4629 45.863 15.221 45.481 14.8099C45.1079 14.4213 44.9021 13.9017 44.908 13.3629C44.9043 12.9489 45.0124 12.5416 45.221 12.1839C45.429 11.8089 45.741 11.5139 46.158 11.2999C46.592 11.0849 47.122 10.9779 47.747 10.9779C48.406 10.9779 48.953 11.1029 49.387 11.3529C49.483 11.4059 49.573 11.4629 49.658 11.5229L49.679 11.5369L49.773 11.6069C50.037 11.8149 50.246 12.0609 50.403 12.3449C50.628 12.7379 50.742 13.1749 50.742 13.6579H54.907C54.907 12.3709 54.621 11.2549 54.048 10.3079C53.475 9.34295 52.651 8.60195 51.575 8.08295C50.515 7.54695 49.24 7.27895 47.747 7.27895C46.323 7.27895 45.091 7.52895 44.049 8.02895C43.008 8.51195 42.192 9.20895 41.602 10.1199C41.028 11.0319 40.742 12.1129 40.742 13.3629C40.742 15.0959 41.307 16.4899 42.435 17.5439C43.563 18.5979 45.074 19.2059 46.965 19.3669L48.398 19.5009C49.56 19.6079 50.403 19.8489 50.923 20.2239C51.444 20.5819 51.705 21.0729 51.705 21.6979C51.7124 22.1775 51.5667 22.6469 51.289 23.0379C51.01 23.4129 50.602 23.7079 50.064 23.9229C49.526 24.1369 48.858 24.2439 48.059 24.2439C47.174 24.2439 46.453 24.1189 45.898 23.8689C45.342 23.6009 44.926 23.2529 44.648 22.8239C44.3907 22.4047 44.2556 21.9219 44.258 21.4299H40.118C40.118 22.6989 40.421 23.8249 41.028 24.8069C41.636 25.7719 42.529 26.5409 43.71 27.1119ZM71.679 27.6199C70.238 27.6199 69.075 27.4419 68.189 27.0839C67.33 26.7334 66.6336 26.0737 66.237 25.2349C65.837 24.3589 65.637 23.1799 65.637 21.6969V15.8809H63.477V12.7459H65.637V8.77895H69.517V12.7459H73.684V15.8809H69.518V21.8579C69.518 22.5549 69.691 23.0909 70.038 23.4659C70.403 23.8239 70.915 24.0019 71.575 24.0019H73.685V27.6199H71.679Z" fill="#1B1B1B" fill-opacity="0.25"/>
<path fill-rule="evenodd" clip-rule="evenodd" d="M78.692 27.3C79.63 27.73 80.706 27.944 81.922 27.944C83.119 27.944 84.178 27.729 85.098 27.301C85.9909 26.8931 86.7748 26.2799 87.3856 25.5114C87.9965 24.7429 88.417 23.8409 88.613 22.879H84.785C84.612 23.325 84.282 23.7 83.796 24.004C83.31 24.307 82.685 24.46 81.921 24.46C81.448 24.46 81.025 24.402 80.653 24.287C80.3817 24.2054 80.1244 24.083 79.89 23.924C79.37 23.567 78.987 23.066 78.744 22.423C78.6754 22.2348 78.6176 22.0428 78.571 21.848C78.5201 21.6399 78.48 21.4292 78.451 21.217H88.874V19.769C88.874 18.429 88.596 17.197 88.041 16.071C87.5017 14.9465 86.6639 13.9918 85.619 13.311C84.577 12.596 83.293 12.238 81.765 12.238C80.602 12.238 79.56 12.453 78.64 12.882C77.769 13.2695 76.9953 13.8461 76.375 14.57C75.7633 15.2919 75.2867 16.1181 74.968 17.009C74.6539 17.9137 74.4956 18.8653 74.5 19.823V20.359C74.5 21.306 74.656 22.235 74.968 23.146C75.298 24.04 75.768 24.852 76.375 25.586C77.018 26.3143 77.8076 26.8987 78.692 27.301V27.3ZM78.522 18.567C78.5798 18.2821 78.6632 18.003 78.771 17.733C79.031 17.071 79.413 16.571 79.916 16.232C80.1061 16.1039 80.3113 15.9998 80.527 15.922C80.9249 15.7838 81.3438 15.7161 81.765 15.722C82.477 15.722 83.067 15.892 83.535 16.232C84.022 16.553 84.386 17.027 84.629 17.652C84.6817 17.7859 84.7274 17.9224 84.766 18.061C84.8317 18.2965 84.8822 18.536 84.917 18.778H78.483C78.495 18.706 78.507 18.636 78.522 18.567Z" fill="#1B1B1B" fill-opacity="0.25"/>
<path d="M90.594 27.436V12.748H93.9V16.448C93.9743 16.065 94.0786 15.6885 94.212 15.322C94.577 14.321 95.124 13.57 95.852 13.07C96.582 12.552 97.476 12.293 98.535 12.293H98.717C99.793 12.293 100.687 12.552 101.399 13.07C102.128 13.57 102.675 14.32 103.04 15.321L103.068 15.397L103.093 15.466C103.109 15.4173 103.126 15.3689 103.144 15.321C103.526 14.321 104.081 13.571 104.81 13.07C105.539 12.552 106.434 12.293 107.493 12.293H107.675C108.751 12.293 109.654 12.552 110.383 13.07C111.129 13.57 111.694 14.32 112.075 15.321C112.457 16.322 112.648 17.573 112.648 19.074V27.436H108.482V18.832C108.482 18.028 108.274 17.376 107.857 16.876C107.458 16.376 106.885 16.126 106.139 16.126C105.392 16.126 104.802 16.385 104.368 16.903C103.934 17.403 103.717 18.073 103.717 18.913V27.436H99.524V18.832C99.524 18.028 99.316 17.376 98.899 16.876C98.5 16.376 97.936 16.126 97.207 16.126C96.443 16.126 95.844 16.385 95.41 16.903C94.976 17.403 94.759 18.073 94.759 18.913V27.436H90.594Z" fill="#1B1B1B" fill-opacity="0.25"/>
<path fill-rule="evenodd" clip-rule="evenodd" d="M123.775 24.604V27.434H127.082V18.43C127.082 17.072 126.822 15.964 126.301 15.107C125.78 14.231 125.016 13.579 124.009 13.15C123.02 12.721 121.796 12.507 120.338 12.507C119.8 12.5069 119.261 12.5159 118.723 12.534C118.15 12.552 117.595 12.578 117.057 12.614L116.646 12.643C116.314 12.6663 115.982 12.6923 115.651 12.721V16.339C116.432 16.2876 117.214 16.2426 117.996 16.204C118.958 16.1576 119.922 16.1313 120.885 16.125C121.649 16.125 122.204 16.313 122.551 16.688C122.898 17.063 123.072 17.626 123.072 18.376V18.43H120.494C119.227 18.43 118.107 18.6 117.135 18.94C116.163 19.26 115.407 19.77 114.87 20.467C114.331 21.146 114.062 22.021 114.062 23.093C114.062 24.076 114.279 24.925 114.713 25.64C115.147 26.3359 115.77 26.8935 116.51 27.247C117.291 27.623 118.194 27.81 119.218 27.81C120.208 27.81 121.041 27.623 121.718 27.247C122.402 26.8816 122.964 26.3226 123.332 25.64C123.4 25.522 123.462 25.4 123.521 25.274C123.605 25.0899 123.679 24.9013 123.742 24.709L123.775 24.604ZM123.072 21.994V20.814H120.468C119.739 20.814 119.175 21.002 118.776 21.377C118.394 21.734 118.202 22.226 118.202 22.851C118.202 23.145 118.25 23.413 118.345 23.654C118.441 23.896 118.584 24.11 118.776 24.298C119.175 24.656 119.739 24.834 120.468 24.834C120.707 24.8373 120.945 24.8138 121.178 24.764C121.369 24.725 121.55 24.668 121.718 24.594C122.1 24.414 122.412 24.12 122.655 23.709C122.898 23.298 123.037 22.726 123.072 21.994Z" fill="#1B1B1B" fill-opacity="0.25"/>
<path d="M129.578 27.4349V12.7479H132.885V17.5959C133.044 16.2119 133.443 15.0959 134.083 14.2489C134.951 13.1229 136.201 12.5599 137.833 12.5599H138.38V16.2589H137.338C136.192 16.2589 135.307 16.5809 134.682 17.2239C134.057 17.8489 133.744 18.7609 133.744 19.9569V27.4349H129.578ZM143.666 20.5729H145.046L149.551 27.4339H154.238L148.526 19.0079L153.223 12.7469H148.848L143.666 19.7299V7.86993H139.5V27.4339H143.666V20.5729Z" fill="#1B1B1B" fill-opacity="0.25"/>
</g>
</g>
</g>
<defs>
<clipPath id="clip0_31_393">
<rect width="155" height="34" fill="white" transform="translate(0 0.25)"/>
</clipPath>
<clipPath id="clip1_31_393">
<rect width="155" height="34" fill="white" transform="translate(0 0.25)"/>
</clipPath>
</defs>
</svg>
