<svg width="26" height="27" viewBox="0 0 26 27" fill="none" xmlns="http://www.w3.org/2000/svg">
<g clip-path="url(#clip0_31_666)">
<mask id="mask0_31_666" style="mask-type:luminance" maskUnits="userSpaceOnUse" x="0" y="0" width="26" height="27">
<path d="M0 0.109863H26V26.1099H0V0.109863Z" fill="white"/>
</mask>
<g mask="url(#mask0_31_666)">
<path fill-rule="evenodd" clip-rule="evenodd" d="M6.75995 4.76714C6.75995 4.2512 7.17839 3.83276 7.69432 3.83276H18.3113C18.5591 3.83276 18.7967 3.93121 18.972 4.10644C19.1472 4.28167 19.2456 4.51933 19.2456 4.76714C19.2456 5.01495 19.1472 5.25261 18.972 5.42784C18.7967 5.60307 18.5591 5.70151 18.3113 5.70151H7.69432C7.44651 5.70151 7.20885 5.60307 7.03362 5.42784C6.85839 5.25261 6.75995 5.01495 6.75995 4.76714ZM21.3419 6.86664C21.8578 6.86664 22.2763 7.28508 22.2763 7.80101V14.5691C22.2763 14.8169 22.1778 15.0546 22.0026 15.2298C21.8274 15.4051 21.5897 15.5035 21.3419 15.5035C21.0941 15.5035 20.8564 15.4051 20.6812 15.2298C20.506 15.0546 20.4075 14.8169 20.4075 14.5691V7.80101C20.4075 7.28508 20.8259 6.86664 21.3419 6.86664ZM6.75995 21.4518C6.75995 20.9359 7.17839 20.5175 7.69432 20.5175H18.3113C18.5591 20.5175 18.7967 20.6159 18.972 20.7911C19.1472 20.9664 19.2456 21.204 19.2456 21.4518C19.2456 21.6996 19.1472 21.9373 18.972 22.1125C18.7967 22.2878 18.5591 22.3862 18.3113 22.3862H7.69432C7.44651 22.3862 7.20885 22.2878 7.03362 22.1125C6.85839 21.9373 6.75995 21.6996 6.75995 21.4518ZM4.66045 6.86664C5.17639 6.86664 5.59482 7.28508 5.59482 7.80101V14.5691C5.59482 14.8169 5.49638 15.0546 5.32115 15.2298C5.14592 15.4051 4.90826 15.5035 4.66045 15.5035C4.41264 15.5035 4.17498 15.4051 3.99975 15.2298C3.82452 15.0546 3.72607 14.8169 3.72607 14.5691V7.80101C3.72607 7.28508 4.14451 6.86664 4.66045 6.86664Z" fill="#C9FE58"/>
<path fill-rule="evenodd" clip-rule="evenodd" d="M0.692139 2.54741C0.692139 2.08411 0.876184 1.63979 1.20379 1.31219C1.53139 0.984583 1.97571 0.800537 2.43901 0.800537H6.88014C7.10954 0.800537 7.3367 0.845722 7.54864 0.93351C7.76058 1.0213 7.95315 1.14997 8.11537 1.31219C8.27758 1.4744 8.40625 1.66697 8.49404 1.87891C8.58183 2.09085 8.62701 2.31801 8.62701 2.54741V6.98854C8.62701 7.21794 8.58183 7.4451 8.49404 7.65704C8.40625 7.86898 8.27758 8.06155 8.11537 8.22376C7.95315 8.38598 7.76058 8.51465 7.54864 8.60244C7.3367 8.69023 7.10954 8.73541 6.88014 8.73541H2.43901C1.97571 8.73541 1.53139 8.55137 1.20379 8.22376C0.876184 7.89616 0.692139 7.45184 0.692139 6.98854V2.54741ZM2.56089 2.66929V6.86666H6.75826V2.66929H2.56089ZM17.3736 2.54741C17.3736 2.08411 17.5576 1.63979 17.8852 1.31219C18.2128 0.984583 18.6572 0.800537 19.1205 0.800537H23.5616C23.791 0.800431 24.0183 0.845536 24.2303 0.933277C24.4424 1.02102 24.635 1.14967 24.7973 1.3119C24.9596 1.47412 25.0884 1.66673 25.1762 1.87872C25.2641 2.09072 25.3093 2.31794 25.3093 2.54741V6.98854C25.3093 7.45184 25.1252 7.89616 24.7976 8.22376C24.47 8.55137 24.0257 8.73541 23.5624 8.73541H19.1213C18.658 8.73541 18.2136 8.55137 17.886 8.22376C17.5584 7.89616 17.3744 7.45184 17.3744 6.98854V2.54741H17.3736ZM19.2423 2.66929V6.86666H23.4397V2.66929H19.2423ZM0.692139 19.2305C0.692139 18.7672 0.876184 18.3228 1.20379 17.9952C1.53139 17.6676 1.97571 17.4836 2.43901 17.4836H6.88014C7.34344 17.4836 7.78776 17.6676 8.11537 17.9952C8.44297 18.3228 8.62701 18.7672 8.62701 19.2305V23.6716C8.62701 23.901 8.58183 24.1282 8.49404 24.3401C8.40625 24.552 8.27758 24.7446 8.11537 24.9068C7.95315 25.069 7.76058 25.1977 7.54864 25.2855C7.3367 25.3733 7.10954 25.4185 6.88014 25.4185H2.43901C1.97585 25.4185 1.53165 25.2345 1.20407 24.9071C0.876494 24.5797 0.692354 24.1356 0.692139 23.6724V19.2305ZM2.56089 19.3524V23.5497H6.75826V19.3524H2.56089ZM17.3736 19.2305C17.3736 18.7672 17.5576 18.3228 17.8852 17.9952C18.2128 17.6676 18.6572 17.4836 19.1205 17.4836H23.5616C24.0249 17.4836 24.4692 17.6676 24.7968 17.9952C25.1244 18.3228 25.3085 18.7672 25.3085 19.2305V23.6716C25.3086 23.901 25.2635 24.1282 25.1758 24.3402C25.0881 24.5521 24.9595 24.7448 24.7974 24.9071C24.6352 25.0694 24.4427 25.1981 24.2308 25.286C24.0189 25.3739 23.7918 25.4192 23.5624 25.4193H19.1213C18.658 25.4193 18.2136 25.2352 17.886 24.9076C17.5584 24.58 17.3744 24.1357 17.3744 23.6724V19.2313L17.3736 19.2305ZM19.2423 19.3524V23.5497H23.4397V19.3524H19.2423Z" fill="#C9FE58"/>
</g>
</g>
<defs>
<clipPath id="clip0_31_666">
<rect width="26" height="26" fill="white" transform="translate(0 0.109863)"/>
</clipPath>
</defs>
</svg>
