<svg width="26" height="27" viewBox="0 0 26 27" fill="none" xmlns="http://www.w3.org/2000/svg">
<g clip-path="url(#clip0_31_678)">
<mask id="mask0_31_678" style="mask-type:luminance" maskUnits="userSpaceOnUse" x="0" y="0" width="26" height="27">
<path d="M0 0.109863H26V26.1099H0V0.109863Z" fill="white"/>
</mask>
<g mask="url(#mask0_31_678)">
<path fill-rule="evenodd" clip-rule="evenodd" d="M13.0042 2.48813C7.1379 2.48813 2.38315 7.2437 2.38315 13.1091C2.38315 18.9754 7.1379 23.7301 13.0042 23.7301C18.8704 23.7301 23.6252 18.9754 23.6252 13.1091C23.6252 7.24288 18.8704 2.48813 13.0042 2.48813ZM0.514404 13.1091C0.514404 6.21182 6.10603 0.619385 13.0042 0.619385C19.9023 0.619385 25.4939 6.21101 25.4939 13.1091C25.4939 20.0073 19.9023 25.5989 13.0042 25.5989C6.10603 25.5989 0.514404 20.0081 0.514404 13.1099V13.1091Z" fill="#C9FE58"/>
<path fill-rule="evenodd" clip-rule="evenodd" d="M13.0018 6.39697C13.5177 6.39697 13.9361 6.81541 13.9361 7.33135V12.1747H18.3943C18.6421 12.1747 18.8798 12.2731 19.055 12.4483C19.2303 12.6236 19.3287 12.8612 19.3287 13.109C19.3287 13.3568 19.2303 13.5945 19.055 13.7697C18.8798 13.945 18.6421 14.0434 18.3943 14.0434H13.0018C12.7539 14.0434 12.5163 13.945 12.3411 13.7697C12.1658 13.5945 12.0674 13.3568 12.0674 13.109V7.33297C12.0674 6.81622 12.485 6.3986 13.0018 6.3986V6.39697Z" fill="#C9FE58"/>
</g>
</g>
<defs>
<clipPath id="clip0_31_678">
<rect width="26" height="26" fill="white" transform="translate(0 0.109863)"/>
</clipPath>
</defs>
</svg>
