<svg width="26" height="27" viewBox="0 0 26 27" fill="none" xmlns="http://www.w3.org/2000/svg">
<g clip-path="url(#clip0_31_643)">
<path fill-rule="evenodd" clip-rule="evenodd" d="M14.0319 4.29924L4.78324 14.8244H11.7935C11.9789 14.8243 12.162 14.8652 12.3297 14.9441C12.4975 15.023 12.6457 15.1379 12.7639 15.2807C12.8821 15.4235 12.9674 15.5907 13.0135 15.7702C13.0597 15.9497 13.0656 16.1373 13.0309 16.3194L11.9633 21.9232L21.212 11.3989H14.2017C14.0164 11.3989 13.8333 11.358 13.6655 11.2791C13.4978 11.2002 13.3495 11.0853 13.2313 10.9425C13.1131 10.7997 13.0279 10.6326 12.9817 10.453C12.9356 10.2735 12.9296 10.086 12.9643 9.90386L14.0319 4.29924ZM14.3732 0.83311C15.2198 -0.129703 16.796 0.640547 16.5564 1.90073L15.1345 9.3668H22.9182C24.0005 9.3668 24.579 10.6432 23.8632 11.4574L11.6212 25.3877C10.7754 26.3513 9.19836 25.5802 9.43886 24.3209L10.8607 16.854H3.07699C1.99392 16.854 1.41624 15.5784 2.13124 14.7642L14.3732 0.83311Z" fill="#C9FE58"/>
</g>
<defs>
<clipPath id="clip0_31_643">
<rect width="26" height="26" fill="white" transform="translate(0 0.109985)"/>
</clipPath>
</defs>
</svg>
