<svg width="26" height="27" viewBox="0 0 26 27" fill="none" xmlns="http://www.w3.org/2000/svg">
<path fill-rule="evenodd" clip-rule="evenodd" d="M2.86569 1.71301C2.98839 1.71407 3.10968 1.73929 3.22264 1.78723C3.3356 1.83517 3.43801 1.90489 3.52402 1.99241C3.61003 2.07993 3.67796 2.18354 3.72393 2.29731C3.7699 2.41109 3.79301 2.5328 3.79194 2.65551L3.73425 8.85732L9.65412 6.87644C9.88851 6.80007 10.1436 6.81942 10.3638 6.93028C10.584 7.04113 10.7514 7.23451 10.8297 7.46828C10.9079 7.70205 10.8906 7.95726 10.7815 8.17833C10.6724 8.39939 10.4804 8.56839 10.2472 8.64851L3.08425 11.0454C2.94307 11.0926 2.79265 11.1055 2.64551 11.0828C2.49837 11.0602 2.35877 11.0027 2.23834 10.9152C2.11791 10.8277 2.02014 10.7126 1.95316 10.5797C1.88619 10.4467 1.85195 10.2997 1.85331 10.1508L1.92237 2.63844C1.92344 2.51574 1.94866 2.39444 1.9966 2.28149C2.04454 2.16853 2.11426 2.06612 2.20178 1.98011C2.2893 1.8941 2.39291 1.82617 2.50668 1.7802C2.62045 1.73423 2.74217 1.71112 2.86487 1.71219L2.86569 1.71301Z" fill="#C9FE58"/>
<path fill-rule="evenodd" clip-rule="evenodd" d="M11.249 1.74069C12.8742 1.49966 14.5322 1.60986 16.1113 2.06385C17.6903 2.51784 19.1537 3.30507 20.4027 4.37248C21.6517 5.43988 22.6574 6.76266 23.352 8.25164C24.0466 9.74062 24.4139 11.3612 24.4291 13.0041C24.4443 14.6471 24.1072 16.2742 23.4404 17.7758C22.7736 19.2774 21.7926 20.6186 20.5635 21.709C19.3345 22.7994 17.886 23.6137 16.3157 24.0969C14.7453 24.5801 13.0896 24.721 11.4602 24.5102C11.3358 24.4978 11.2152 24.4606 11.1054 24.4007C10.9957 24.3408 10.899 24.2596 10.8213 24.1617C10.7435 24.0638 10.6861 23.9513 10.6526 23.8309C10.6191 23.7104 10.6101 23.5845 10.6262 23.4605C10.6422 23.3365 10.683 23.217 10.746 23.1091C10.8091 23.0011 10.8932 22.9069 10.9933 22.8321C11.0934 22.7572 11.2075 22.7032 11.3289 22.6733C11.4503 22.6433 11.5764 22.638 11.6999 22.6577C13.5249 22.8943 15.3795 22.6029 17.0439 21.8178C18.7084 21.0328 20.1129 19.7871 21.091 18.2283C22.0692 16.6695 22.58 14.863 22.563 13.0228C22.546 11.1826 22.0018 9.38585 20.9949 7.84545C19.988 6.30504 18.5607 5.08555 16.882 4.33146C15.2033 3.57738 13.3437 3.32031 11.5234 3.59071C9.70306 3.86111 7.99842 4.64766 6.61142 5.85714C5.22442 7.06663 4.21321 8.64837 3.69759 10.4149C3.66323 10.5327 3.60601 10.6426 3.52919 10.7383C3.45237 10.834 3.35745 10.9136 3.24986 10.9726C3.14228 11.0316 3.02412 11.0688 2.90214 11.0821C2.78017 11.0955 2.65676 11.0847 2.53896 11.0503C2.42117 11.016 2.31129 10.9587 2.21561 10.8819C2.11993 10.8051 2.04031 10.7102 1.98131 10.6026C1.92231 10.495 1.88508 10.3768 1.87175 10.2549C1.85841 10.1329 1.86923 10.0095 1.90359 9.89168C2.51911 7.78181 3.72658 5.89261 5.38292 4.44796C7.03925 3.00332 9.07501 2.06378 11.249 1.74069Z" fill="#C9FE58"/>
<path fill-rule="evenodd" clip-rule="evenodd" d="M5.24879 18.973C5.00168 18.973 4.75698 19.0217 4.52868 19.1162C4.30037 19.2108 4.09293 19.3494 3.91819 19.5241C3.74346 19.6989 3.60485 19.9063 3.51028 20.1346C3.41571 20.3629 3.36704 20.6076 3.36704 20.8547C3.36704 21.1019 3.41571 21.3466 3.51028 21.5749C3.60485 21.8032 3.74346 22.0106 3.91819 22.1853C4.09293 22.3601 4.30037 22.4987 4.52868 22.5933C4.75698 22.6878 5.00168 22.7365 5.24879 22.7365C5.74786 22.7365 6.22649 22.5382 6.57939 22.1853C6.93229 21.8324 7.13054 21.3538 7.13054 20.8547C7.13054 20.3557 6.93229 19.877 6.57939 19.5241C6.22649 19.1713 5.74786 18.973 5.24879 18.973ZM1.49829 20.8547C1.49829 19.8601 1.89343 18.9061 2.59679 18.2027C3.30014 17.4994 4.2541 17.1042 5.24879 17.1042C6.24349 17.1042 7.19744 17.4994 7.90079 18.2027C8.60415 18.9061 8.99929 19.8601 8.99929 20.8547C8.99929 21.8494 8.60415 22.8034 7.90079 23.5068C7.19744 24.2101 6.24349 24.6052 5.24879 24.6052C4.2541 24.6052 3.30014 24.2101 2.59679 23.5068C1.89343 22.8034 1.49829 21.8494 1.49829 20.8547Z" fill="#C9FE58"/>
</svg>
