<svg width="26" height="27" viewBox="0 0 26 27" fill="none" xmlns="http://www.w3.org/2000/svg">
<path fill-rule="evenodd" clip-rule="evenodd" d="M13.0049 1.36121C13.3608 1.36121 13.685 1.56271 13.8426 1.88121L17.1397 8.56158L24.5116 9.63246C24.684 9.65763 24.8459 9.73052 24.9791 9.84289C25.1123 9.95526 25.2114 10.1026 25.2652 10.2684C25.3191 10.4341 25.3255 10.6116 25.2837 10.7807C25.242 10.9499 25.1538 11.1041 25.0291 11.2258L19.6951 16.4258L20.9544 23.7683C20.984 23.9403 20.9648 24.1171 20.8991 24.2788C20.8333 24.4404 20.7236 24.5804 20.5824 24.6829C20.4412 24.7854 20.2741 24.8463 20.1 24.8587C19.9259 24.8711 19.7519 24.8345 19.5976 24.7531L13.0049 21.287L6.41068 24.7531C6.25639 24.8341 6.08254 24.8703 5.90875 24.8577C5.73496 24.845 5.56817 24.7841 5.4272 24.6816C5.28624 24.5792 5.17673 24.4394 5.11103 24.278C5.04534 24.1166 5.02608 23.9401 5.05543 23.7683L6.31481 16.4258L0.97993 11.2258C0.855217 11.1041 0.767019 10.9499 0.725298 10.7807C0.683577 10.6116 0.689996 10.4341 0.743829 10.2684C0.797663 10.1026 0.896766 9.95526 1.02994 9.84289C1.16312 9.73052 1.32507 9.65763 1.49749 9.63246L8.86849 8.56158L12.1664 1.88121C12.2436 1.72518 12.3629 1.59381 12.5108 1.50194C12.6586 1.41006 12.8292 1.36132 13.0033 1.36121H13.0049ZM13.0049 4.40564L10.3277 9.82908C10.2607 9.96493 10.1616 10.0824 10.039 10.1715C9.91643 10.2605 9.77405 10.3184 9.62412 10.3401L3.64087 11.2095L7.97149 15.4296C8.19087 15.645 8.29162 15.9537 8.23962 16.2568L7.21749 22.2181L12.5702 19.4044C12.7043 19.3339 12.8535 19.2971 13.0049 19.2971C13.1564 19.2971 13.3056 19.3339 13.4396 19.4044L18.7924 22.2181L17.7702 16.2568C17.7445 16.1075 17.7555 15.9542 17.8022 15.8101C17.8489 15.666 17.93 15.5355 18.0384 15.4296L22.369 11.2095L16.3849 10.3401C16.2351 10.3182 16.0928 10.2601 15.9704 10.1709C15.8479 10.0818 15.749 9.96416 15.6821 9.82827L13.0049 4.40564Z" fill="#C9FE58"/>
</svg>
