<svg width="26" height="27" viewBox="0 0 26 27" fill="none" xmlns="http://www.w3.org/2000/svg">
<path fill-rule="evenodd" clip-rule="evenodd" d="M9.03256 4.65586C8.22685 4.65586 7.45414 4.97593 6.88441 5.54565C6.31469 6.11537 5.99462 6.88809 5.99462 7.6938C5.99462 8.49951 6.31469 9.27222 6.88441 9.84194C7.45414 10.4117 8.22685 10.7317 9.03256 10.7317C9.83827 10.7317 10.611 10.4117 11.1807 9.84194C11.7504 9.27222 12.0705 8.49951 12.0705 7.6938C12.0705 6.88809 11.7504 6.11537 11.1807 5.54565C10.611 4.97593 9.83827 4.65586 9.03256 4.65586ZM4.12587 7.6938C4.12587 6.39246 4.64283 5.14443 5.56301 4.22424C6.48319 3.30406 7.73123 2.78711 9.03256 2.78711C10.3339 2.78711 11.5819 3.30406 12.5021 4.22424C13.4223 5.14443 13.9392 6.39246 13.9392 7.6938C13.9392 8.99513 13.4223 10.2432 12.5021 11.1633C11.5819 12.0835 10.3339 12.6005 9.03256 12.6005C7.73123 12.6005 6.48319 12.0835 5.56301 11.1633C4.64283 10.2432 4.12587 8.99513 4.12587 7.6938ZM19.8697 4.65586C19.5656 4.65586 19.2645 4.71575 18.9835 4.83213C18.7026 4.9485 18.4473 5.11906 18.2323 5.33409C18.0173 5.54912 17.8467 5.80439 17.7303 6.08533C17.614 6.36628 17.5541 6.66739 17.5541 6.97148C17.5541 7.27558 17.614 7.57669 17.7303 7.85764C17.8467 8.13858 18.0173 8.39385 18.2323 8.60888C18.4473 8.8239 18.7026 8.99447 18.9835 9.11084C19.2645 9.22721 19.5656 9.28711 19.8697 9.28711C20.4838 9.28711 21.0728 9.04314 21.5071 8.60888C21.9413 8.17461 22.1853 7.58563 22.1853 6.97148C22.1853 6.35734 21.9413 5.76835 21.5071 5.33409C21.0728 4.89983 20.4838 4.65586 19.8697 4.65586ZM15.6853 6.97148C15.6853 5.86172 16.1262 4.79741 16.9109 4.01268C17.6956 3.22796 18.7599 2.78711 19.8697 2.78711C20.9795 2.78711 22.0438 3.22796 22.8285 4.01268C23.6132 4.79741 24.0541 5.86172 24.0541 6.97148C24.0541 8.08125 23.6132 9.14556 22.8285 9.93028C22.0438 10.715 20.9795 11.1559 19.8697 11.1559C18.7599 11.1559 17.6956 10.715 16.9109 9.93028C16.1262 9.14556 15.6853 8.08125 15.6853 6.97148ZM3.06068 17.1935C4.66537 15.8188 6.81444 15.0648 9.03094 15.0648C11.2474 15.0648 13.3965 15.8188 15.0012 17.1935C16.4832 18.4643 17.3964 20.1795 17.5313 22.0255C17.5906 22.8355 16.9292 23.4335 16.2077 23.4335H1.85412C1.13343 23.4335 0.471247 22.8355 0.53056 22.0255C0.665435 20.1795 1.57868 18.4643 3.06068 17.1935ZM9.03094 16.9335C7.22475 16.9335 5.51687 17.5502 4.277 18.613C3.31256 19.4385 2.69993 20.4744 2.4765 21.5648H15.5854C15.3619 20.4744 14.7485 19.4385 13.7849 18.613C12.545 17.5502 10.8371 16.9335 9.03175 16.9335H9.03094ZM19.9071 14.7674C19.1739 14.7643 18.4544 14.9658 17.8295 15.3492C17.7252 15.4173 17.6084 15.4639 17.4858 15.4862C17.3633 15.5085 17.2375 15.5061 17.1159 15.4791C16.9943 15.4522 16.8794 15.4011 16.7778 15.3291C16.6762 15.257 16.59 15.1653 16.5244 15.0595C16.4587 14.9536 16.4149 14.8357 16.3955 14.7127C16.376 14.5897 16.3814 14.464 16.4113 14.3431C16.4411 14.2221 16.4948 14.1084 16.5693 14.0085C16.6437 13.9087 16.7374 13.8247 16.8447 13.7615C17.7663 13.194 18.828 12.8951 19.9103 12.8987L19.9087 13.833V12.8987H19.9103C21.3704 12.8987 22.7825 13.439 23.8347 14.4189C24.8877 15.4012 25.493 16.7475 25.493 18.1669V19.2037C25.493 19.5592 25.3518 19.9002 25.1003 20.1516C24.8489 20.4031 24.5079 20.5443 24.1524 20.5443H19.9087C19.6609 20.5443 19.4232 20.4459 19.248 20.2706C19.0728 20.0954 18.9743 19.8577 18.9743 19.6099C18.9743 19.3621 19.0728 19.1244 19.248 18.9492C19.4232 18.774 19.6609 18.6755 19.9087 18.6755H23.6242V19.2037C23.6242 19.0636 23.6799 18.9293 23.7789 18.8302C23.878 18.7312 24.0123 18.6755 24.1524 18.6755H23.6242V18.1661C23.6242 17.2862 23.2505 16.4282 22.5599 15.7855C21.8676 15.1395 20.9146 14.7666 19.9087 14.7666H19.9062L19.9071 14.7674Z" fill="#C9FE58"/>
</svg>
