<svg width="260" height="53" viewBox="0 0 260 53" fill="none" xmlns="http://www.w3.org/2000/svg">
<g clip-path="url(#clip0_31_697)">
<mask id="mask0_31_697" style="mask-type:luminance" maskUnits="userSpaceOnUse" x="0" y="0" width="260" height="53">
<path d="M0 0.0134277H260V52.2067H0V0.0134277Z" fill="white"/>
</mask>
<g mask="url(#mask0_31_697)">
<path d="M0.12085 34.9442L18.5886 27.1877L29.2186 33.0044L31.3663 52.0868L18.2667 51.9853L20.1998 38.7186L17.9449 37.494L6.88568 45.6584L0.12085 34.9442ZM30.3785 32.1828L46.6985 43.5097L53.1415 32.5907L40.041 27.5908V25.1416L53.1415 20.0382L46.6985 9.22259L30.3785 20.5485V32.1828ZM29.2186 19.6323L31.3663 0.549805L18.2667 0.752779L20.1998 14.0195L17.9449 15.2442L6.77743 7.08073L0.12085 17.6934L18.5886 25.4489L29.2186 19.6323ZM96.8505 24.0291V41.9072H103.9V19.1229H93.6339V24.0291H96.8505ZM96.6427 15.9227C97.2893 16.5606 98.2733 16.8795 99.5955 16.8795C100.918 16.8795 101.886 16.5606 102.503 15.9227C103.15 15.2567 103.472 14.4255 103.472 13.428C103.472 12.4025 103.15 11.5713 102.503 10.9343C101.886 10.2674 100.918 9.9359 99.5955 9.9359C98.2733 9.9359 97.2893 10.2684 96.6427 10.9334C96.026 11.5713 95.7177 12.4025 95.7177 13.428C95.7177 14.4255 96.027 15.2567 96.6427 15.9227ZM72.3119 41.4085C74.3088 42.2668 76.7619 42.6969 79.6702 42.6969C82.4017 42.6969 84.7513 42.2948 86.7202 41.4906C88.689 40.6884 90.2007 39.5653 91.2591 38.1232C92.3455 36.654 92.8886 34.95 92.8886 33.0102C92.8886 31.1254 92.3764 29.5306 91.347 28.2277C90.3476 26.8978 88.9539 25.8587 87.1609 25.1106C85.3689 24.3345 83.2986 23.8493 80.948 23.655L78.4804 23.4472C77.0113 23.3361 75.9539 22.962 75.3082 22.3241C74.6606 21.6871 74.3388 20.939 74.3388 20.0798C74.3388 19.4138 74.5156 18.8039 74.8665 18.2501C75.2193 17.6682 75.748 17.2111 76.4536 16.8776C77.1881 16.5461 78.0841 16.3789 79.1405 16.3789C80.2569 16.3789 81.1829 16.5722 81.9174 16.9617C82.0788 17.0429 82.2325 17.1308 82.3765 17.2246L82.4113 17.2468C82.9106 17.5644 83.3298 17.9931 83.6359 18.4995C84.0177 19.11 84.2166 19.817 84.2091 20.5369H91.2591C91.2591 18.541 90.7739 16.809 89.8054 15.3398C88.8359 13.8436 87.4403 12.6925 85.6193 11.8893C83.8263 11.0581 81.6681 10.6424 79.1415 10.6424C76.7319 10.6424 74.6471 11.0291 72.8841 11.8062C71.1221 12.5543 69.7409 13.6349 68.7425 15.0489C67.7721 16.462 67.2878 18.139 67.2878 20.0798C67.2878 22.7677 68.2438 24.9299 70.1527 26.5653C72.0616 28.2007 74.6181 29.143 77.8193 29.3924L80.2434 29.6002C82.2103 29.7665 83.6359 30.1415 84.5174 30.7233C85.3979 31.2772 85.8387 32.0398 85.8387 33.0092C85.8387 33.4558 85.7614 33.8733 85.6067 34.2638C85.4886 34.5594 85.3295 34.837 85.1341 35.0882C84.6634 35.6701 83.9742 36.1273 83.0628 36.4607C82.1523 36.7932 81.0214 36.9595 79.6702 36.9595C78.1721 36.9595 76.9533 36.7662 76.0128 36.3766C75.0724 35.961 74.3678 35.4207 73.8971 34.7558C73.4651 34.1175 73.2351 33.3642 73.2369 32.5936H66.2304C66.2304 34.5615 66.7446 36.308 67.7721 37.8323C68.8005 39.3294 70.3141 40.5212 72.3119 41.4085ZM119.641 42.1972C117.203 42.1972 115.234 41.9198 113.737 41.3659C112.238 40.7831 111.137 39.8272 110.431 38.4963C109.756 37.1383 109.418 35.3096 109.418 33.0082V23.9865H105.761V19.1219H109.418V12.9689H115.983V19.1219H123.034V23.9865H115.983V33.2586C115.983 34.3392 116.278 35.1704 116.865 35.7523C117.481 36.3071 118.348 36.5835 119.465 36.5835H123.034V42.1972H119.641Z" fill="white"/>
<path fill-rule="evenodd" clip-rule="evenodd" d="M131.507 41.7024C133.093 42.3673 134.914 42.6998 136.971 42.6998C138.997 42.6998 140.79 42.3673 142.347 41.7024C143.903 41.0364 145.196 40.1076 146.223 38.9168C147.239 37.75 147.951 36.3501 148.295 34.8418H141.817C141.524 35.5348 140.965 36.1177 140.143 36.5874C139.32 37.0591 138.262 37.2949 136.971 37.2949C136.169 37.2949 135.454 37.205 134.824 37.0272C134.369 36.902 133.935 36.7122 133.534 36.4637C132.652 35.9089 132.006 35.1328 131.595 34.1353C131.479 33.8445 131.381 33.5469 131.301 33.2441C131.215 32.9215 131.147 32.5943 131.098 32.2641H148.736V30.0188C148.736 27.9407 148.265 26.027 147.325 24.2814C146.385 22.5078 145.019 21.0802 143.228 19.9996C141.465 18.891 139.29 18.3362 136.706 18.3362C134.737 18.3362 132.975 18.6687 131.418 19.3337C129.892 19.9716 128.613 20.8444 127.585 21.953C126.562 23.0544 125.755 24.3379 125.205 25.737C124.675 27.1309 124.406 28.6106 124.412 30.1019V30.9331C124.412 32.4023 124.676 33.8444 125.205 35.2574C125.768 36.6498 126.574 37.9311 127.585 39.0415C128.642 40.1501 129.949 41.0364 131.507 41.7024ZM131.22 28.1534C131.316 27.7091 131.457 27.2756 131.639 26.8592C132.079 25.8346 132.726 25.0575 133.577 24.5308C133.896 24.3345 134.241 24.1741 134.611 24.0513C135.235 23.8445 135.934 23.7421 136.706 23.7421C137.911 23.7421 138.909 24.005 139.702 24.5308C140.525 25.0305 141.141 25.7641 141.553 26.7345C141.642 26.9414 141.719 27.1531 141.784 27.3685C141.846 27.5705 141.901 27.7783 141.949 27.9939C141.984 28.1524 142.014 28.3148 142.04 28.481H131.152C131.172 28.3699 131.195 28.2616 131.22 28.1534Z" fill="white"/>
<path d="M151.649 41.912V19.1277H157.246V24.866C157.321 24.5249 157.408 24.1972 157.505 23.8831C157.588 23.6192 157.676 23.364 157.774 23.1195C158.391 21.5663 159.316 20.4035 160.55 19.6264C161.784 18.8223 163.296 18.4211 165.088 18.4211H165.397C167.219 18.4211 168.731 18.8223 169.936 19.6264C171.169 20.4026 172.095 21.5663 172.712 23.1185L172.76 23.2365L172.801 23.3428L172.887 23.1185C173.534 21.5663 174.475 20.4026 175.708 19.6264C176.942 18.8223 178.455 18.4211 180.247 18.4211H180.555C182.376 18.4211 183.903 18.8223 185.137 19.6264C186.401 20.4026 187.356 21.5663 188.001 23.1185C188.648 24.6718 188.972 26.6116 188.972 28.94V41.911H181.921V28.5669C181.921 27.3191 181.569 26.3072 180.863 25.532C180.188 24.7549 179.218 24.3673 177.956 24.3673C176.692 24.3673 175.693 24.7694 174.959 25.5726C174.225 26.3487 173.857 27.3887 173.857 28.6916V41.913H166.763V28.565C166.763 27.3172 166.411 26.3052 165.705 25.5301C165.029 24.753 164.075 24.3654 162.842 24.3654C161.549 24.3654 160.535 24.7675 159.801 25.5707C159.067 26.3468 158.699 27.3868 158.699 28.6897V41.911L151.649 41.912Z" fill="white"/>
<path fill-rule="evenodd" clip-rule="evenodd" d="M207.804 37.5171V41.9081H213.399V27.9367C213.399 25.8297 212.958 24.1121 212.077 22.7812C211.196 21.4232 209.904 20.4112 208.2 19.7463C206.526 19.0813 204.455 18.7488 201.987 18.7488C201.076 18.7486 200.165 18.7624 199.255 18.7903C198.314 18.8167 197.374 18.8582 196.435 18.915L195.739 18.9595C195.178 18.9961 194.617 19.0367 194.056 19.0813V24.694C195.378 24.6142 196.701 24.5443 198.024 24.4842C199.653 24.4138 201.282 24.3728 202.912 24.3615C204.205 24.3615 205.145 24.6515 205.732 25.2343C206.32 25.8161 206.613 26.6899 206.613 27.8536V27.9367H202.251C200.107 27.9367 198.213 28.2006 196.567 28.7274C194.922 29.2261 193.644 30.0158 192.734 31.0964C191.823 32.1499 191.368 33.5079 191.368 35.1713C191.368 36.6955 191.735 38.0129 192.47 39.1216C193.203 40.2012 194.217 41.0334 195.509 41.6152C196.832 42.1971 198.36 42.489 200.092 42.489C201.767 42.489 203.177 42.1971 204.323 41.6152C205.498 41.0334 206.408 40.2022 207.055 39.1216C207.168 38.9379 207.274 38.7494 207.374 38.5532C207.516 38.2691 207.641 37.9767 207.748 37.6776L207.804 37.5171ZM206.613 33.4673V31.6386H202.206C200.973 31.6386 200.019 31.9286 199.344 32.5114C198.697 33.0662 198.373 33.8278 198.373 34.7982C198.373 35.2544 198.454 35.6691 198.615 36.0441C198.777 36.4191 199.02 36.7516 199.344 37.0425C200.019 37.5973 200.973 37.8738 202.206 37.8738C202.442 37.8738 202.669 37.8641 202.888 37.8419C203.068 37.8245 203.242 37.7993 203.41 37.7665C203.733 37.7046 204.037 37.6157 204.323 37.4997C204.969 37.2233 205.498 36.7661 205.908 36.1272C206.32 35.4912 206.555 34.6039 206.613 33.4673Z" fill="white"/>
<path d="M217.623 41.9092V19.1259H223.219V26.6456C223.487 24.4999 224.164 22.7678 225.247 21.4543C226.715 19.7077 228.83 18.835 231.592 18.835H232.517V24.5724H230.754C228.817 24.5724 227.317 25.0711 226.26 26.0686C225.203 27.039 224.673 28.4521 224.673 30.3097V41.9092H217.623ZM241.459 31.2647H243.795L251.417 41.9083H259.349L249.683 28.8367L257.63 19.1239H250.228L241.459 29.957V11.5569H234.409V41.9083H241.459V31.2647Z" fill="white"/>
</g>
</g>
<defs>
<clipPath id="clip0_31_697">
<rect width="260" height="52.1933" fill="white" transform="translate(0 0.0134277)"/>
</clipPath>
</defs>
</svg>
